<?xml version="1.0" encoding="UTF-8" standalone="no"?>
<svg
   xmlns:dc="http://purl.org/dc/elements/1.1/"
   xmlns:cc="http://creativecommons.org/ns#"
   xmlns:rdf="http://www.w3.org/1999/02/22-rdf-syntax-ns#"
   xmlns:svg="http://www.w3.org/2000/svg"
   xmlns="http://www.w3.org/2000/svg"
   width="131.29395mm"
   height="80.619019mm"
   viewBox="0 0 131.29395 80.619019"
   version="1.1"
   id="svg3170">
  <defs
     id="defs3164" />
  <rect
     y="-1.4331054e-07"
     x="-3.572998e-07"
     height="80.619019"
     width="131.29395"
     id="rect2253"
     style="fill:#bec8b7;fill-opacity:1;stroke:none;stroke-width:0.249601;stroke-miterlimit:4;stroke-dasharray:none" />
  <path
     id="134"
     class="seg134"
     style="fill:#000000;stroke:none;stroke-width:0.564999;stroke-miterlimit:4;stroke-dasharray:none"
     d="m 13.429461,49.202073 -3.34389,2.535765 2.88434,2.72283 h 5.03381 l 3.36024,-2.72283 -2.90069,-2.535765 z" />
  <path
     id="84"
     class="seg84"
     style="fill:#000000;stroke:none;stroke-width:0.564999;stroke-miterlimit:4;stroke-dasharray:none"
     d="m 9.534571,52.141398 -1.83514,1.39682 -1.19968,13.72786 h 5.35109 l 0.94154,-10.77403 0.10279,-1.17615 z" />
  <path
     id="64"
     class="seg64"
     style="fill:#000000;stroke:none;stroke-width:0.564999;stroke-miterlimit:4;stroke-dasharray:none"
     d="m 21.843841,52.141928 -3.91486,3.17397 -0.10279,1.17615 -0.94154,10.77403 -0.0159,0.18139 -0.0479,0.54828 -0.011,0.12556 h -0.0129 c -0.0312,0.13637 -0.095,0.26043 -0.17752,0.3695 l 3.57425,5.35987 c 0.87443,-0.65346 1.48586,-1.65745 1.58483,-2.79001 l 1.5402,-17.62424 z" />
  <path
     id="34"
     class="seg34"
     style="fill:#000000;stroke:none;stroke-width:0.564999;stroke-miterlimit:4;stroke-dasharray:none"
     d="m 6.425011,68.121308 -0.25688,2.93936 c -0.17293,1.97883 1.28092,3.57188 3.25974,3.57188 h 8.46666 c 0.59971,0 1.17547,-0.14817 1.69336,-0.40722 l -3.57152,-5.35573 c -0.053,0.01 -0.10693,0.015 -0.16202,0.015 h -3.25612 c -0.44923,0 -0.78573,-0.33147 -0.80922,-0.76327 h -0.0129 z" />
  <path
     class="seg168"
     id="168"
     style="fill:#000000;stroke:none;stroke-width:2.13543;stroke-miterlimit:4;stroke-dasharray:none"
     d="M 36.546875 125.32812 C 35.971177 126.68652 35.585635 128.13799 35.453125 129.6543 L 30.337891 188.19336 L 36.335938 193.85547 L 51.039062 182.72852 L 54.662109 141.27344 L 36.546875 125.32812 z "
     transform="scale(0.26458333)" />
  <path
     id="114"
     style="fill:#000000;stroke:none;stroke-width:2.13543;stroke-miterlimit:4;stroke-dasharray:none"
     d="M 88.300781 117.71094 L 73.814453 138.9043 L 73.894531 138.9043 L 73.730469 140.7793 L 73.6875 141.27344 L 70.064453 182.72852 L 82.824219 193.85742 L 89.300781 188.60938 L 94.453125 129.6543 C 94.907273 124.4576 92.38664 119.96906 88.300781 117.71094 z "
     transform="scale(0.26458333)"
     class="seg114" />
  <path
     id="164"
     class="seg164"
     style="fill:#000000;stroke:none;stroke-width:0.564999;stroke-miterlimit:4;stroke-dasharray:none"
     d="m 13.264331,30.732383 c -1.33316,0 -2.55271,0.724501 -3.2606,1.80144 l 4.78921,4.217831 h 3.88194 l 4.02077,-5.881801 c -0.30303,-0.0877 -0.62514,-0.13747 -0.96466,-0.13747 z" />
  <path
     d="m 21.869781,73.031448 q 0,-0.57682 0.4716,-0.97809 0.4716,-0.40127 1.179,-0.40127 0.64843,0 1.14949,0.45144 0.53056,0.45143 0.53056,1.05333 0,0.72729 -0.67792,1.70539 -0.67792,0.9781 -1.44426,1.45462 l -0.67792,-0.40129 q 0.32422,-0.40125 0.58949,-0.77745 0.26526,-0.35111 0.38317,-0.627 -0.76634,-0.025 -1.14952,-0.42633 -0.35369,-0.42635 -0.35369,-1.05335 z"
     style="font-style:normal;font-variant:normal;font-weight:normal;font-stretch:normal;font-size:10.5833px;line-height:1.25;font-family:'富士ポップ';-inkscape-font-specification:'富士ポップ, Normal';font-variant-ligatures:normal;font-variant-caps:normal;font-variant-numeric:normal;font-variant-east-asian:normal;fill:#000000;fill-opacity:1;stroke:none;stroke-width:0.543766"
     id="30"
     class="seg30" />
  <path
     d="m 32.973981,49.202073 -3.343899,2.535765 2.884339,2.72283 h 5.033809 l 3.36024,-2.72283 -2.90068,-2.535765 z"
     style="fill:#000000;stroke:none;stroke-width:0.564999;stroke-miterlimit:4;stroke-dasharray:none"
     id="110"
     class="seg110" />
  <path
     d="m 29.079092,52.141398 -1.835142,1.39682 -1.199689,13.72786 h 5.351089 l 0.941551,-10.77403 0.10278,-1.17615 z"
     style="fill:#000000;stroke:none;stroke-width:0.564999;stroke-miterlimit:4;stroke-dasharray:none"
     id="60"
     class="seg60" />
  <path
     d="m 41.388361,52.141928 -3.914871,3.17397 -0.10278,1.17615 -0.941548,10.77403 -0.0159,0.18139 -0.0479,0.54828 -0.01101,0.12556 h -0.01291 c -0.0312,0.13637 -0.095,0.26043 -0.17752,0.3695 l 3.574251,5.35987 c 0.87444,-0.65346 1.485871,-1.65745 1.584841,-2.79001 l 1.54019,-17.62424 z"
     style="fill:#000000;stroke:none;stroke-width:0.564999;stroke-miterlimit:4;stroke-dasharray:none"
     id="55"
     class="seg55" />
  <path
     d="m 25.969521,68.121308 -0.25687,2.93936 c -0.17293,1.97883 1.280911,3.57188 3.259729,3.57188 h 8.466662 c 0.59971,0 1.17548,-0.14817 1.69337,-0.40722 l -3.57152,-5.35573 c -0.053,0.01 -0.106932,0.015 -0.162021,0.015 H 32.14275 c -0.449228,0 -0.785728,-0.33147 -0.809228,-0.76327 h -0.01291 z"
     style="fill:#000000;stroke:none;stroke-width:0.564999;stroke-miterlimit:4;stroke-dasharray:none"
     id="10"
     class="seg10" />
  <path
     class="seg144"
     id="144"
     style="fill:#000000;stroke:none;stroke-width:2.13543;stroke-miterlimit:4;stroke-dasharray:none"
     d="M 110.41406 125.32812 C 109.83836 126.68652 109.45478 128.13799 109.32227 129.6543 L 104.20703 188.19336 L 110.20508 193.85547 L 124.9082 182.72852 L 128.53125 141.27344 L 110.41406 125.32812 z "
     transform="scale(0.26458333)" />
  <path
     class="seg89"
     id="89"
     style="fill:#000000;stroke:none;stroke-width:2.13543;stroke-miterlimit:4;stroke-dasharray:none"
     d="M 162.16992 117.71094 L 147.68359 138.9043 L 147.76367 138.9043 L 147.59961 140.7793 L 147.55664 141.27344 L 143.93359 182.72852 L 156.69336 193.85742 L 163.16992 188.60938 L 168.32227 129.6543 C 168.77641 124.4576 166.25578 119.96906 162.16992 117.71094 z "
     transform="scale(0.26458333)" />
  <path
     d="m 32.808841,30.732383 c -1.333161,0 -2.5527,0.724501 -3.2606,1.80144 l 4.789209,4.217831 h 3.881941 l 4.02078,-5.881801 c -0.303041,-0.0877 -0.62515,-0.13747 -0.964671,-0.13747 z"
     style="fill:#000000;stroke:none;stroke-width:0.564999;stroke-miterlimit:4;stroke-dasharray:none"
     id="139"
     class="seg139" />
  <path
     id="133"
     class="seg133"
     style="fill:#000000;stroke:none;stroke-width:0.564999;stroke-miterlimit:4;stroke-dasharray:none"
     d="m 51.724732,49.202073 -3.343892,2.535765 2.884342,2.72283 h 5.03381 l 3.36024,-2.72283 -2.900691,-2.535765 z" />
  <path
     id="83"
     class="seg83"
     style="fill:#000000;stroke:none;stroke-width:0.564999;stroke-miterlimit:4;stroke-dasharray:none"
     d="m 47.82984,52.141398 -1.835139,1.39682 -1.199679,13.72786 h 5.351089 l 0.941549,-10.77403 0.10278,-1.17615 z" />
  <path
     id="79"
     class="seg79"
     style="fill:#000000;stroke:none;stroke-width:0.564999;stroke-miterlimit:4;stroke-dasharray:none"
     d="m 60.139112,52.141928 -3.91486,3.17397 -0.102791,1.17615 -0.941541,10.77403 -0.0159,0.18139 -0.0479,0.54828 -0.01101,0.12556 H 55.0922 c -0.0312,0.13637 -0.095,0.26043 -0.177519,0.3695 l 3.574248,5.35987 c 0.874432,-0.65346 1.485861,-1.65745 1.584831,-2.79001 l 1.5402,-17.62424 z" />
  <path
     id="33"
     class="seg33"
     style="fill:#000000;stroke:none;stroke-width:0.564999;stroke-miterlimit:4;stroke-dasharray:none"
     d="m 44.720282,68.121308 -0.25687,2.93936 c -0.172932,1.97883 1.280908,3.57188 3.25973,3.57188 h 8.466659 c 0.599709,0 1.175469,-0.14817 1.693359,-0.40722 l -3.571517,-5.35573 c -0.053,0.01 -0.106932,0.015 -0.162021,0.015 h -3.256121 c -0.449231,0 -0.78573,-0.33147 -0.80922,-0.76327 h -0.01288 z" />
  <path
     class="seg183"
     id="183"
     style="fill:#000000;stroke:none;stroke-width:2.13543;stroke-miterlimit:4;stroke-dasharray:none"
     d="M 181.2832 125.32812 C 180.70751 126.68652 180.32392 128.13799 180.19141 129.6543 L 175.07617 188.19336 L 181.07422 193.85547 L 195.77734 182.72852 L 199.40039 141.27344 L 181.2832 125.32812 z "
     transform="scale(0.26458333)" />
  <path
     class="seg113"
     id="113"
     style="fill:#000000;stroke:none;stroke-width:2.13543;stroke-miterlimit:4;stroke-dasharray:none"
     d="M 233.03906 117.71094 L 218.55273 138.9043 L 218.63281 138.9043 L 218.46875 140.7793 L 218.42578 141.27344 L 214.80273 182.72852 L 227.5625 193.85742 L 234.03906 188.60938 L 239.19141 129.6543 C 239.64556 124.4576 237.12491 119.96906 233.03906 117.71094 z "
     transform="scale(0.26458333)" />
  <path
     id="163"
     class="seg163"
     style="fill:#000000;stroke:none;stroke-width:0.564999;stroke-miterlimit:4;stroke-dasharray:none"
     d="m 51.5596,30.732383 c -1.333158,0 -2.552708,0.724501 -3.260598,1.80144 l 4.78921,4.217831 h 3.88194 l 4.02077,-5.881801 c -0.30303,-0.0877 -0.625142,-0.13747 -0.96466,-0.13747 z" />
  <path
     d="m 70.475501,49.202073 -3.343888,2.535765 2.884339,2.72283 h 5.033809 l 3.360243,-2.72283 -2.900694,-2.535765 z"
     style="fill:#000000;stroke:none;stroke-width:0.564999;stroke-miterlimit:4;stroke-dasharray:none"
     id="109"
     class="seg109" />
  <path
     d="m 66.580613,52.141398 -1.835143,1.39682 -1.199679,13.72786 h 5.35109 l 0.941541,-10.77403 0.10279,-1.17615 z"
     style="fill:#000000;stroke:none;stroke-width:0.564999;stroke-miterlimit:4;stroke-dasharray:none"
     id="59"
     class="seg59" />
  <path
     d="m 78.889884,52.141928 -3.914863,3.17397 -0.10279,1.17615 -0.941538,10.77403 -0.0159,0.18139 -0.0479,0.54828 -0.01101,0.12556 h -0.01291 c -0.0312,0.13637 -0.095,0.26043 -0.17752,0.3695 l 3.574251,5.35987 c 0.87443,-0.65346 1.48586,-1.65745 1.58483,-2.79001 l 1.5402,-17.62424 z"
     style="fill:#000000;stroke:none;stroke-width:0.564999;stroke-miterlimit:4;stroke-dasharray:none"
     id="54"
     class="seg54" />
  <path
     d="m 63.471052,68.121308 -0.256871,2.93936 c -0.172929,1.97883 1.280912,3.57188 3.25973,3.57188 h 8.466662 c 0.59971,0 1.175469,-0.14817 1.69336,-0.40722 l -3.571521,-5.35573 c -0.053,0.01 -0.106931,0.015 -0.16202,0.015 h -3.256121 c -0.449229,0 -0.785728,-0.33147 -0.809221,-0.76327 h -0.01288 z"
     style="fill:#000000;stroke:none;stroke-width:0.564999;stroke-miterlimit:4;stroke-dasharray:none"
     id="9"
     class="seg9" />
  <path
     class="seg159"
     id="159"
     style="fill:#000000;stroke:none;stroke-width:2.13543;stroke-miterlimit:4;stroke-dasharray:none"
     d="M 252.15234 125.32812 C 251.57664 126.68652 251.19306 128.13799 251.06055 129.6543 L 245.94531 188.19336 L 251.94336 193.85547 L 266.64648 182.72852 L 270.26953 141.27344 L 252.15234 125.32812 z "
     transform="scale(0.26458333)" />
  <path
     class="seg88"
     id="88"
     style="fill:#000000;stroke:none;stroke-width:2.13543;stroke-miterlimit:4;stroke-dasharray:none"
     d="M 303.9082 117.71094 L 289.42188 138.9043 L 289.50195 138.9043 L 289.33789 140.7793 L 289.29492 141.27344 L 285.67188 182.72852 L 298.43164 193.85742 L 304.9082 188.60938 L 310.06055 129.6543 C 310.51469 124.4576 307.99406 119.96906 303.9082 117.71094 z "
     transform="scale(0.26458333)" />
  <path
     d="m 70.310372,30.732383 c -1.333161,0 -2.55271,0.724501 -3.2606,1.80144 l 4.789209,4.217831 h 3.881941 l 4.020772,-5.881801 c -0.30303,-0.0877 -0.62514,-0.13747 -0.96466,-0.13747 z"
     style="fill:#000000;stroke:none;stroke-width:0.564999;stroke-miterlimit:4;stroke-dasharray:none"
     id="138"
     class="seg138" />
  <path
     id="22"
     class="seg22"
     style="fill:#000000;stroke:none;stroke-width:0.483989;stroke-miterlimit:4;stroke-dasharray:none"
     d="m 101.30823,46.279533 a 0.80632784,0.80632784 0 0 1 -0.80633,0.806331 0.80632784,0.80632784 0 0 1 -0.806326,-0.806331 0.80632784,0.80632784 0 0 1 0.806326,-0.806331 0.80632784,0.80632784 0 0 1 0.80633,0.806331 z" />
  <path
     id="126"
     class="seg126"
     style="fill:#000000;stroke:none;stroke-width:0.205177;stroke-miterlimit:4;stroke-dasharray:none"
     d="m 96.307114,37.264954 -1.21432,0.92084 1.04743,0.98879 h 1.82801 l 1.22025,-0.98879 -1.05337,-0.92084 z" />
  <path
     id="76"
     class="seg76"
     style="fill:#000000;stroke:none;stroke-width:0.205177;stroke-miterlimit:4;stroke-dasharray:none"
     d="m 94.892704,38.332354 -0.66642,0.507249 -0.43566,4.985189 h 1.94322 l 0.34192,-3.912528 0.0373,-0.427112 z" />
  <path
     id="56"
     class="seg56"
     style="fill:#000000;stroke:none;stroke-width:0.205177;stroke-miterlimit:4;stroke-dasharray:none"
     d="m 99.362754,38.332542 -1.42167,1.15261 -0.0373,0.427112 -0.34192,3.912528 -0.006,0.0659 -0.0174,0.199112 -0.004,0.0456 h -0.005 c -0.0113,0.0495 -0.0345,0.0946 -0.0645,0.134171 l 1.29797,1.94641 c 0.31755,-0.2373 0.53959,-0.60189 0.57553,-1.013169 l 0.55931,-6.400152 z" />
  <path
     id="26"
     class="seg26"
     style="fill:#000000;stroke:none;stroke-width:0.205177;stroke-miterlimit:4;stroke-dasharray:none"
     d="m 93.763484,44.135373 -0.0933,1.067409 c -0.0628,0.7186 0.46515,1.297101 1.18375,1.297101 h 3.07462 c 0.21778,0 0.42687,-0.0538 0.61494,-0.147881 l -1.29698,-1.944899 c -0.0192,0.004 -0.0388,0.005 -0.0588,0.005 h -1.18245 c -0.16313,0 -0.28533,-0.12037 -0.29386,-0.27718 h -0.005 z" />
  <path
     class="seg160"
     id="160"
     style="fill:#000000;stroke:none;stroke-width:0.775472;stroke-miterlimit:4;stroke-dasharray:none"
     d="M 358.83398 118.82617 C 358.62498 119.31943 358.4855 119.84585 358.4375 120.39648 L 356.58008 141.6543 L 358.75977 143.71094 L 364.09766 139.66992 L 365.41406 124.61523 L 358.83398 118.82617 z "
     transform="scale(0.26458333)" />
  <path
     class="seg106"
     id="106"
     style="fill:#000000;stroke:none;stroke-width:0.775472;stroke-miterlimit:4;stroke-dasharray:none"
     d="M 377.62891 116.05859 L 372.36914 123.75586 L 372.39844 123.75586 L 372.33984 124.43555 L 372.32422 124.61523 L 371.00977 139.66992 L 375.64258 143.71094 L 377.99609 141.80469 L 379.86523 120.39648 C 380.03002 118.50933 379.11461 116.8786 377.63086 116.05859 L 377.62891 116.05859 z "
     transform="scale(0.26458333)" />
  <path
     id="156"
     class="seg156"
     style="fill:#000000;stroke:none;stroke-width:0.205177;stroke-miterlimit:4;stroke-dasharray:none"
     d="m 96.247144,30.557782 c -0.48413,0 -0.927,0.263102 -1.18407,0.65418 l 1.73918,1.531691 h 1.4097 l 1.46013,-2.135949 c -0.11005,-0.0319 -0.22702,-0.0499 -0.35032,-0.0499 z" />
  <path
     d="m 104.36455,37.264954 -1.21431,0.92084 1.04743,0.98879 h 1.828 l 1.22025,-0.98879 -1.05337,-0.92084 z"
     style="fill:#000000;stroke:none;stroke-width:0.205177;stroke-miterlimit:4;stroke-dasharray:none"
     id="101"
     class="seg101" />
  <path
     d="m 102.95014,38.332354 -0.66642,0.507249 -0.43566,4.985189 h 1.94322 l 0.34192,-3.912528 0.0373,-0.427112 z"
     style="fill:#000000;stroke:none;stroke-width:0.205177;stroke-miterlimit:4;stroke-dasharray:none"
     id="51"
     class="seg51" />
  <path
     d="m 107.42019,38.332542 -1.42166,1.15261 -0.0373,0.427112 -0.34192,3.912528 -0.006,0.0659 -0.0174,0.199112 -0.004,0.0456 h -0.005 c -0.0113,0.0495 -0.0345,0.0946 -0.0645,0.134171 l 1.29796,1.94641 c 0.31755,-0.2373 0.53959,-0.60189 0.57553,-1.013169 l 0.55931,-6.400152 z"
     style="fill:#000000;stroke:none;stroke-width:0.205177;stroke-miterlimit:4;stroke-dasharray:none"
     id="95"
     class="seg95" />
  <path
     d="m 101.82092,44.135373 -0.0933,1.067409 c -0.0628,0.7186 0.46516,1.297101 1.18376,1.297101 h 3.07462 c 0.21778,0 0.42686,-0.0538 0.61493,-0.147881 l -1.29697,-1.944899 c -0.0192,0.004 -0.0388,0.005 -0.0588,0.005 h -1.18244 c -0.16314,0 -0.28534,-0.12037 -0.29387,-0.27718 h -0.005 z"
     style="fill:#000000;stroke:none;stroke-width:0.205177;stroke-miterlimit:4;stroke-dasharray:none"
     id="1"
     class="seg1" />
  <path
     class="seg151"
     id="151"
     style="fill:#000000;stroke:none;stroke-width:0.775472;stroke-miterlimit:4;stroke-dasharray:none"
     d="M 389.28711 118.82617 C 389.0781 119.31943 388.93863 119.84585 388.89062 120.39648 L 387.0332 141.65625 L 389.21289 143.71094 L 394.55078 139.66992 L 395.86719 124.61523 L 389.28711 118.82617 z "
     transform="scale(0.26458333)" />
  <path
     class="seg129"
     id="129"
     style="fill:#000000;stroke:none;stroke-width:0.775472;stroke-miterlimit:4;stroke-dasharray:none"
     d="M 408.08203 116.05859 L 402.82227 123.75586 L 402.85156 123.75586 L 402.79297 124.43555 L 402.77734 124.61523 L 401.46289 139.66992 L 406.0957 143.71094 L 408.44922 141.80469 L 410.31836 120.39648 C 410.48315 118.50933 409.56775 116.8786 408.08398 116.05859 L 408.08203 116.05859 z "
     transform="scale(0.26458333)" />
  <path
     d="m 104.30458,30.557782 c -0.48413,0 -0.927,0.263102 -1.18406,0.65418 l 1.73917,1.531691 h 1.40971 l 1.46012,-2.135949 c -0.11005,-0.0319 -0.22702,-0.0499 -0.35031,-0.0499 z"
     style="fill:#000000;stroke:none;stroke-width:0.205177;stroke-miterlimit:4;stroke-dasharray:none"
     id="179"
     class="seg179" />
  <path
     id="118"
     class="seg118"
     style="fill:#000000;stroke:none;stroke-width:0.205177;stroke-miterlimit:4;stroke-dasharray:none"
     d="m 112.42199,37.264954 -1.21431,0.92084 1.04743,0.98879 h 1.828 l 1.22025,-0.98879 -1.05337,-0.92084 z" />
  <path
     id="68"
     class="seg68"
     style="fill:#000000;stroke:none;stroke-width:0.205177;stroke-miterlimit:4;stroke-dasharray:none"
     d="m 111.00759,38.332354 -0.66643,0.507249 -0.43565,4.985189 h 1.94321 l 0.34192,-3.912528 0.0373,-0.427112 z" />
  <path
     id="72"
     class="seg72"
     style="fill:#000000;stroke:none;stroke-width:0.205177;stroke-miterlimit:4;stroke-dasharray:none"
     d="m 115.47763,38.332542 -1.42166,1.15261 -0.0373,0.427112 -0.34191,3.912528 -0.006,0.0659 -0.0174,0.199112 -0.004,0.0456 h -0.005 c -0.0113,0.0495 -0.0345,0.0946 -0.0645,0.134171 l 1.29797,1.94641 c 0.31754,-0.2373 0.53958,-0.60189 0.57552,-1.013169 l 0.55931,-6.400152 z" />
  <path
     id="18"
     class="seg18"
     style="fill:#000000;stroke:none;stroke-width:0.205177;stroke-miterlimit:4;stroke-dasharray:none"
     d="m 109.87836,44.135373 -0.0933,1.067409 c -0.0628,0.7186 0.46516,1.297101 1.18376,1.297101 h 3.07462 c 0.21778,0 0.42687,-0.0538 0.61493,-0.147881 l -1.29697,-1.944899 c -0.0192,0.004 -0.0388,0.005 -0.0588,0.005 h -1.18244 c -0.16314,0 -0.28534,-0.12037 -0.29387,-0.27718 h -0.005 z" />
  <path
     class="seg152"
     id="152"
     style="fill:#000000;stroke:none;stroke-width:0.775472;stroke-miterlimit:4;stroke-dasharray:none"
     d="M 419.74219 118.82617 C 419.53318 119.31943 419.39175 119.84585 419.34375 120.39648 L 417.48633 141.65625 L 419.66602 143.71094 L 425.00391 139.66992 L 426.32031 124.61523 L 419.74219 118.82617 z "
     transform="scale(0.26458333)" />
  <path
     class="seg122"
     id="122"
     style="fill:#000000;stroke:none;stroke-width:0.775472;stroke-miterlimit:4;stroke-dasharray:none"
     d="M 438.53516 116.05859 L 433.27539 123.75586 L 433.30469 123.75586 L 433.24609 124.43555 L 433.23047 124.61523 L 431.91602 139.66992 L 436.54883 143.71094 L 438.90234 141.80469 L 440.77148 120.39648 C 440.93627 118.50933 440.02088 116.8786 438.53711 116.05859 L 438.53516 116.05859 z "
     transform="scale(0.26458333)" />
  <path
     id="172"
     class="seg172"
     style="fill:#000000;stroke:none;stroke-width:0.205177;stroke-miterlimit:4;stroke-dasharray:none"
     d="m 112.36203,30.557782 c -0.48413,0 -0.92701,0.263102 -1.18407,0.65418 l 1.73917,1.531691 h 1.40971 l 1.46012,-2.135949 c -0.11005,-0.0319 -0.22702,-0.0499 -0.35031,-0.0499 z" />
  <path
     d="m 120.47943,37.264954 -1.21431,0.92084 1.04743,0.98879 h 1.828 l 1.22025,-0.98879 -1.05337,-0.92084 z"
     style="fill:#000000;stroke:none;stroke-width:0.205177;stroke-miterlimit:4;stroke-dasharray:none"
     id="142"
     class="seg142" />
  <path
     d="m 119.06503,38.332354 -0.66643,0.507249 -0.43565,4.985189 h 1.94321 l 0.34192,-3.912528 0.0373,-0.427112 z"
     style="fill:#000000;stroke:none;stroke-width:0.205177;stroke-miterlimit:4;stroke-dasharray:none"
     id="92"
     class="seg92" />
  <path
     d="m 123.53507,38.332542 -1.42166,1.15261 -0.0373,0.427112 -0.34191,3.912528 -0.006,0.0659 -0.0174,0.199112 -0.004,0.0456 h -0.005 c -0.0113,0.0495 -0.0345,0.0946 -0.0645,0.134171 l 1.29797,1.94641 c 0.31754,-0.2373 0.53958,-0.60189 0.57552,-1.013169 l 0.55931,-6.400152 z"
     style="fill:#000000;stroke:none;stroke-width:0.205177;stroke-miterlimit:4;stroke-dasharray:none"
     id="48"
     class="seg48" />
  <path
     d="m 117.9358,44.135373 -0.0933,1.067409 c -0.0628,0.7186 0.46516,1.297101 1.18376,1.297101 h 3.07462 c 0.21778,0 0.42687,-0.0538 0.61493,-0.147881 l -1.29697,-1.944899 c -0.0192,0.004 -0.0388,0.005 -0.0588,0.005 h -1.18244 c -0.16314,0 -0.28534,-0.12037 -0.29387,-0.27718 h -0.005 z"
     style="fill:#000000;stroke:none;stroke-width:0.205177;stroke-miterlimit:4;stroke-dasharray:none"
     id="42"
     class="seg42" />
  <path
     class="seg176"
     id="176"
     style="fill:#000000;stroke:none;stroke-width:0.775472;stroke-miterlimit:4;stroke-dasharray:none"
     d="M 450.19531 118.82617 C 449.9863 119.31943 449.84488 119.84585 449.79688 120.39648 L 447.93945 141.65625 L 450.11914 143.71094 L 455.45703 139.66992 L 456.77344 124.61523 L 450.19531 118.82617 z "
     transform="scale(0.26458333)" />
  <path
     class="seg98"
     id="98"
     style="fill:#000000;stroke:none;stroke-width:0.775472;stroke-miterlimit:4;stroke-dasharray:none"
     d="M 468.99023 116.05859 L 463.72852 123.75586 L 463.75977 123.75586 L 463.69922 124.43555 L 463.68359 124.61523 L 462.36914 139.66992 L 467.00195 143.71094 L 469.35547 141.80469 L 471.22461 120.39648 C 471.3894 118.50933 470.47595 116.8786 468.99219 116.05859 L 468.99023 116.05859 z "
     transform="scale(0.26458333)" />
  <path
     d="m 120.41947,30.557782 c -0.48413,0 -0.92701,0.263102 -1.18407,0.65418 l 1.73917,1.531691 h 1.40971 l 1.46012,-2.135949 c -0.11005,-0.0319 -0.22702,-0.0499 -0.35031,-0.0499 z"
     style="fill:#000000;stroke:none;stroke-width:0.205177;stroke-miterlimit:4;stroke-dasharray:none"
     id="148"
     class="seg148" />
  <path
     d="m 101.30823,66.387868 a 0.80632784,0.80632784 0 0 1 -0.80633,0.80633 0.80632784,0.80632784 0 0 1 -0.806326,-0.80633 0.80632784,0.80632784 0 0 1 0.806326,-0.80634 0.80632784,0.80632784 0 0 1 0.80633,0.80634 z"
     style="fill:#000000;stroke:none;stroke-width:0.483989;stroke-miterlimit:4;stroke-dasharray:none"
     id="21"
     class="seg21" />
  <path
     d="m 96.307114,57.373288 -1.21432,0.92084 1.04743,0.98878 h 1.82801 l 1.22025,-0.98878 -1.05337,-0.92084 z"
     style="fill:#000000;stroke:none;stroke-width:0.205177;stroke-miterlimit:4;stroke-dasharray:none"
     id="125"
     class="seg125" />
  <path
     d="m 94.892704,58.440678 -0.66642,0.50726 -0.43566,4.98518 h 1.94322 l 0.34192,-3.91252 0.0373,-0.42712 z"
     style="fill:#000000;stroke:none;stroke-width:0.205177;stroke-miterlimit:4;stroke-dasharray:none"
     id="75"
     class="seg75" />
  <path
     d="m 99.362754,58.440868 -1.42167,1.15261 -0.0373,0.42712 -0.34192,3.91252 -0.006,0.0659 -0.0174,0.19911 -0.004,0.0456 h -0.005 c -0.0113,0.0495 -0.0345,0.0946 -0.0645,0.13418 l 1.29797,1.9464 c 0.31755,-0.2373 0.53959,-0.60189 0.57553,-1.01317 l 0.55931,-6.40015 z"
     style="fill:#000000;stroke:none;stroke-width:0.205177;stroke-miterlimit:4;stroke-dasharray:none"
     id="71"
     class="seg71" />
  <path
     d="m 93.763484,64.243708 -0.0933,1.0674 c -0.0628,0.7186 0.46515,1.29712 1.18375,1.29712 h 3.07462 c 0.21778,0 0.42687,-0.0538 0.61494,-0.14788 l -1.29698,-1.9449 c -0.0192,0.004 -0.0388,0.005 -0.0588,0.005 h -1.18245 c -0.16313,0 -0.28533,-0.12037 -0.29386,-0.27718 h -0.005 z"
     style="fill:#000000;stroke:none;stroke-width:0.205177;stroke-miterlimit:4;stroke-dasharray:none"
     id="25"
     class="seg25" />
  <path
     class="seg175"
     id="175"
     style="fill:#000000;stroke:none;stroke-width:0.775472;stroke-miterlimit:4;stroke-dasharray:none"
     d="M 358.83398 194.82617 C 358.62498 195.31944 358.4855 195.84588 358.4375 196.39648 L 356.58008 217.65625 L 358.75977 219.71094 L 364.09766 215.66992 L 365.41406 200.61523 L 358.83398 194.82617 z "
     transform="scale(0.26458333)" />
  <path
     class="seg105"
     id="105"
     style="fill:#000000;stroke:none;stroke-width:0.775472;stroke-miterlimit:4;stroke-dasharray:none"
     d="M 377.62891 192.05859 L 372.36914 199.75586 L 372.39844 199.75586 L 372.33984 200.43555 L 372.32422 200.61523 L 371.00977 215.66992 L 375.64258 219.71094 L 377.99609 217.80469 L 379.86523 196.39648 C 380.03002 194.50933 379.11461 192.87865 377.63086 192.05859 L 377.62891 192.05859 z "
     transform="scale(0.26458333)" />
  <path
     d="m 96.247144,50.666113 c -0.48413,0 -0.927,0.263102 -1.18407,0.654185 l 1.73918,1.53169 h 1.4097 l 1.46013,-2.135954 c -0.11005,-0.0318 -0.22702,-0.0499 -0.35032,-0.0499 z"
     style="fill:#000000;stroke:none;stroke-width:0.205177;stroke-miterlimit:4;stroke-dasharray:none"
     id="155"
     class="seg155" />
  <path
     id="100"
     class="seg100"
     style="fill:#000000;stroke:none;stroke-width:0.205177;stroke-miterlimit:4;stroke-dasharray:none"
     d="m 104.36455,57.373288 -1.21431,0.92084 1.04743,0.98878 h 1.828 l 1.22025,-0.98878 -1.05337,-0.92084 z" />
  <path
     id="50"
     class="seg50"
     style="fill:#000000;stroke:none;stroke-width:0.205177;stroke-miterlimit:4;stroke-dasharray:none"
     d="m 102.95014,58.440678 -0.66642,0.50726 -0.43566,4.98518 h 1.94322 l 0.34192,-3.91252 0.0373,-0.42712 z" />
  <path
     id="94"
     class="seg94"
     style="fill:#000000;stroke:none;stroke-width:0.205177;stroke-miterlimit:4;stroke-dasharray:none"
     d="m 107.42019,58.440868 -1.42166,1.15261 -0.0373,0.42712 -0.34192,3.91252 -0.006,0.0659 -0.0174,0.19911 -0.004,0.0456 h -0.005 c -0.0113,0.0495 -0.0345,0.0946 -0.0645,0.13418 l 1.29796,1.9464 c 0.31755,-0.2373 0.53959,-0.60189 0.57553,-1.01317 l 0.55931,-6.40015 z" />
  <path
     id="0"
     class="seg0"
     style="fill:#000000;stroke:none;stroke-width:0.205177;stroke-miterlimit:4;stroke-dasharray:none"
     d="m 101.82092,64.243708 -0.0933,1.0674 c -0.0628,0.7186 0.46516,1.29712 1.18376,1.29712 h 3.07462 c 0.21778,0 0.42686,-0.0538 0.61493,-0.14788 l -1.29697,-1.9449 c -0.0192,0.004 -0.0388,0.005 -0.0588,0.005 h -1.18244 c -0.16314,0 -0.28534,-0.12037 -0.29387,-0.27718 h -0.005 z" />
  <path
     class="seg150"
     id="150"
     style="fill:#000000;stroke:none;stroke-width:0.775472;stroke-miterlimit:4;stroke-dasharray:none"
     d="M 389.28711 194.82617 C 389.0781 195.31944 388.93863 195.84588 388.89062 196.39648 L 387.0332 217.65625 L 389.21289 219.71094 L 394.55078 215.66992 L 395.86719 200.61523 L 389.28711 194.82617 z "
     transform="scale(0.26458333)" />
  <path
     class="seg128"
     id="128"
     style="fill:#000000;stroke:none;stroke-width:0.775472;stroke-miterlimit:4;stroke-dasharray:none"
     d="M 408.08203 192.05859 L 402.82227 199.75586 L 402.85156 199.75586 L 402.79297 200.43555 L 402.77734 200.61523 L 401.46289 215.66992 L 406.0957 219.71094 L 408.44922 217.80469 L 410.31836 196.39648 C 410.48315 194.50933 409.56775 192.87865 408.08398 192.05859 L 408.08203 192.05859 z "
     transform="scale(0.26458333)" />
  <path
     id="178"
     class="seg178"
     style="fill:#000000;stroke:none;stroke-width:0.205177;stroke-miterlimit:4;stroke-dasharray:none"
     d="m 104.30458,50.666113 c -0.48413,0 -0.927,0.263102 -1.18406,0.654185 l 1.73917,1.53169 h 1.40971 l 1.46012,-2.135954 c -0.11005,-0.0318 -0.22702,-0.0499 -0.35031,-0.0499 z" />
  <path
     d="m 112.42199,57.373288 -1.21431,0.92084 1.04743,0.98878 h 1.828 l 1.22025,-0.98878 -1.05337,-0.92084 z"
     style="fill:#000000;stroke:none;stroke-width:0.205177;stroke-miterlimit:4;stroke-dasharray:none"
     id="124"
     class="seg124" />
  <path
     d="m 111.00759,58.440678 -0.66643,0.50726 -0.43565,4.98518 h 1.94321 l 0.34192,-3.91252 0.0373,-0.42712 z"
     style="fill:#000000;stroke:none;stroke-width:0.205177;stroke-miterlimit:4;stroke-dasharray:none"
     id="74"
     class="seg74" />
  <path
     d="m 115.47763,58.440868 -1.42166,1.15261 -0.0373,0.42712 -0.34191,3.91252 -0.006,0.0659 -0.0174,0.19911 -0.004,0.0456 h -0.005 c -0.0113,0.0495 -0.0345,0.0946 -0.0645,0.13418 l 1.29797,1.9464 c 0.31754,-0.2373 0.53958,-0.60189 0.57552,-1.01317 l 0.55931,-6.40015 z"
     style="fill:#000000;stroke:none;stroke-width:0.205177;stroke-miterlimit:4;stroke-dasharray:none"
     id="70"
     class="seg70" />
  <path
     d="m 109.87836,64.243708 -0.0933,1.0674 c -0.0628,0.7186 0.46516,1.29712 1.18376,1.29712 h 3.07462 c 0.21778,0 0.42687,-0.0538 0.61493,-0.14788 l -1.29697,-1.9449 c -0.0192,0.004 -0.0388,0.005 -0.0588,0.005 h -1.18244 c -0.16314,0 -0.28534,-0.12037 -0.29387,-0.27718 h -0.005 z"
     style="fill:#000000;stroke:none;stroke-width:0.205177;stroke-miterlimit:4;stroke-dasharray:none"
     id="24"
     class="seg24" />
  <path
     class="seg174"
     id="174"
     style="fill:#000000;stroke:none;stroke-width:0.775472;stroke-miterlimit:4;stroke-dasharray:none"
     d="M 419.74219 194.82617 C 419.53318 195.31944 419.39175 195.84588 419.34375 196.39648 L 417.48633 217.65625 L 419.66602 219.71094 L 425.00391 215.66992 L 426.32031 200.61523 L 419.74219 194.82617 z "
     transform="scale(0.26458333)" />
  <path
     class="seg104"
     id="104"
     style="fill:#000000;stroke:none;stroke-width:0.775472;stroke-miterlimit:4;stroke-dasharray:none"
     d="M 438.53516 192.05859 L 433.27539 199.75586 L 433.30469 199.75586 L 433.24609 200.43555 L 433.23047 200.61523 L 431.91602 215.66992 L 436.54883 219.71094 L 438.90234 217.80469 L 440.77148 196.39648 C 440.93627 194.50933 440.02088 192.87865 438.53711 192.05859 L 438.53516 192.05859 z "
     transform="scale(0.26458333)" />
  <path
     d="m 112.36203,50.666113 c -0.48413,0 -0.92701,0.263102 -1.18407,0.654185 l 1.73917,1.53169 h 1.40971 l 1.46012,-2.135954 c -0.11005,-0.0318 -0.22702,-0.0499 -0.35031,-0.0499 z"
     style="fill:#000000;stroke:none;stroke-width:0.205177;stroke-miterlimit:4;stroke-dasharray:none"
     id="154"
     class="seg154" />
  <path
     id="123"
     class="seg123"
     style="fill:#000000;stroke:none;stroke-width:0.205177;stroke-miterlimit:4;stroke-dasharray:none"
     d="m 120.47944,57.373288 -1.21431,0.92084 1.04743,0.98878 h 1.828 l 1.22025,-0.98878 -1.05337,-0.92084 z" />
  <path
     id="73"
     class="seg73"
     style="fill:#000000;stroke:none;stroke-width:0.205177;stroke-miterlimit:4;stroke-dasharray:none"
     d="m 119.06504,58.440678 -0.66643,0.50726 -0.43565,4.98518 h 1.94321 l 0.34192,-3.91252 0.0373,-0.42712 z" />
  <path
     id="69"
     class="seg69"
     style="fill:#000000;stroke:none;stroke-width:0.205177;stroke-miterlimit:4;stroke-dasharray:none"
     d="m 123.53508,58.440868 -1.42166,1.15261 -0.0373,0.42712 -0.34191,3.91252 -0.006,0.0659 -0.0174,0.19911 -0.004,0.0456 h -0.005 c -0.0113,0.0495 -0.0345,0.0946 -0.0645,0.13418 l 1.29797,1.9464 c 0.31754,-0.2373 0.53958,-0.60189 0.57552,-1.01317 l 0.55931,-6.40015 z" />
  <path
     id="39"
     class="seg39"
     style="fill:#000000;stroke:none;stroke-width:0.205177;stroke-miterlimit:4;stroke-dasharray:none"
     d="m 117.93581,64.243708 -0.0933,1.0674 c -0.0628,0.7186 0.46516,1.29712 1.18376,1.29712 h 3.07462 c 0.21778,0 0.42687,-0.0538 0.61493,-0.14788 l -1.29697,-1.9449 c -0.0192,0.004 -0.0388,0.005 -0.0588,0.005 h -1.18246 c -0.16314,0 -0.28534,-0.12037 -0.29387,-0.27718 h -0.005 z" />
  <path
     class="seg173"
     id="173"
     style="fill:#000000;stroke:none;stroke-width:0.775472;stroke-miterlimit:4;stroke-dasharray:none"
     d="M 450.19531 194.82617 C 449.9863 195.31944 449.84488 195.84588 449.79688 196.39648 L 447.93945 217.65625 L 450.11914 219.71094 L 455.45703 215.66992 L 456.77344 200.61523 L 450.19531 194.82617 z "
     transform="scale(0.26458333)" />
  <path
     class="seg119"
     id="119"
     style="fill:#000000;stroke:none;stroke-width:0.775472;stroke-miterlimit:4;stroke-dasharray:none"
     d="M 468.99023 192.05859 L 463.72852 199.75586 L 463.75977 199.75586 L 463.69922 200.43555 L 463.68359 200.61523 L 462.36914 215.66992 L 467.00195 219.71094 L 469.35547 217.80469 L 471.22461 196.39648 C 471.3894 194.50933 470.47595 192.87865 468.99219 192.05859 L 468.99023 192.05859 z "
     transform="scale(0.26458333)" />
  <path
     id="153"
     class="seg153"
     style="fill:#000000;stroke:none;stroke-width:0.205177;stroke-miterlimit:4;stroke-dasharray:none"
     d="m 120.41948,50.666113 c -0.48413,0 -0.92701,0.263102 -1.18407,0.654185 l 1.73917,1.53169 h 1.40971 l 1.46012,-2.135954 c -0.11005,-0.0318 -0.22702,-0.0499 -0.35031,-0.0499 z" />
  <path
     id="44"
     class="seg44"
     style="fill:#000000;stroke:none;stroke-width:0.483989;stroke-miterlimit:4;stroke-dasharray:none"
     d="m 109.3994,66.387868 a 0.80632784,0.80632784 0 0 1 -0.80633,0.80633 0.80632784,0.80632784 0 0 1 -0.80632,-0.80633 0.80632784,0.80632784 0 0 1 0.80632,-0.80634 0.80632784,0.80632784 0 0 1 0.80633,0.80634 z" />
  <path
     d="m 117.39744,66.387868 a 0.80632784,0.80632784 0 0 1 -0.80633,0.80633 0.80632784,0.80632784 0 0 1 -0.80632,-0.80633 0.80632784,0.80632784 0 0 1 0.80632,-0.80634 0.80632784,0.80632784 0 0 1 0.80633,0.80634 z"
     style="fill:#000000;stroke:none;stroke-width:0.483989;stroke-miterlimit:4;stroke-dasharray:none"
     id="20"
     class="seg20" />
  <path
     d="m 85.810644,68.152098 v -4.23759 h 2.93895 v 4.23759 z m -3.79219,-4.23759 h 2.82307 v 4.23759 h -2.82307 z m 7.72132,-1.42807 h -8.70097 v 13.22502 h 0.97965 v -6.1313 h 6.73114 v 4.31519 c 0,0.27941 -0.0632,0.37253 -0.26335,0.37253 -0.20014,0.0155 -0.87431,0.0311 -1.54848,-0.0155 0.15801,0.38806 0.31602,1.04001 0.35816,1.44358 0.93751,0 1.54847,-0.0311 1.92769,-0.26387 0.38976,-0.24836 0.51616,-0.68298 0.51616,-1.52118 z"
     style="font-style:normal;font-variant:normal;font-weight:500;font-stretch:normal;font-size:12.7871px;line-height:1.25;font-family:'Noto Sans CJK JP';-inkscape-font-specification:'Noto Sans CJK JP, Medium';font-variant-ligatures:normal;font-variant-caps:normal;font-variant-numeric:normal;font-variant-east-asian:normal;fill:#000000;fill-opacity:1;stroke:none;stroke-width:0.319675"
     id="47"
     class="seg47" />
  <path
     d="m 122.22622,71.332888 v -2.60561 h 2.17931 v 2.60561 z m -2.81202,-2.60561 h 2.09339 v 2.60561 h -2.09339 z m 5.72558,-0.87808 h -6.45202 v 8.13178 h 0.72644 v -3.77001 h 4.99133 v 2.65332 c 0,0.1718 -0.0469,0.22907 -0.19528,0.22907 -0.14841,0.01 -0.64833,0.0191 -1.14824,-0.01 0.11717,0.23861 0.23434,0.63947 0.26558,0.88762 0.69519,0 1.14824,-0.0191 1.42944,-0.16225 0.28901,-0.15271 0.38275,-0.41995 0.38275,-0.93535 z"
     style="font-style:normal;font-variant:normal;font-weight:500;font-stretch:normal;font-size:8.63437px;line-height:1.25;font-family:'Noto Sans CJK JP';-inkscape-font-specification:'Noto Sans CJK JP, Medium';font-variant-ligatures:normal;font-variant-caps:normal;font-variant-numeric:normal;font-variant-east-asian:normal;fill:#000000;fill-opacity:1;stroke:none;stroke-width:0.215858"
     id="15"
     class="seg15" />
  <rect
     style="opacity:0.15;fill:#ff0000;fill-opacity:1;stroke:none;stroke-width:0.530117;stroke-miterlimit:4;stroke-dasharray:none"
     id="rect2769"
     width="131.29395"
     height="26.275957"
     x="-3.572998e-07"
     y="-1.4331054e-07"
     ry="0" />
  <path
     d="m 88.220934,21.843953 a 0.94128984,0.94128984 0 0 1 -0.94129,0.94129 0.94128984,0.94128984 0 0 1 -0.94129,-0.94129 0.94128984,0.94128984 0 0 1 0.94129,-0.941293 0.94128984,0.94128984 0 0 1 0.94129,0.941293 z"
     style="fill:#ff0000;stroke:none;stroke-width:0.564999;stroke-miterlimit:4;stroke-dasharray:none"
     id="28"
     class="seg28" />
  <path
     d="m 82.382734,11.320523 -1.41757,1.074978 1.22275,1.154281 h 2.13397 l 1.4245,-1.154281 -1.22968,-1.074978 z"
     style="fill:#ff2a2a;stroke:none;stroke-width:0.239519;stroke-miterlimit:4;stroke-dasharray:none"
     id="132"
     class="seg132" />
  <path
     d="m 80.731584,12.566585 -0.77797,0.59215 -0.50857,5.819605 h 2.26847 l 0.39915,-4.567396 0.0436,-0.498602 z"
     style="fill:#ff2a2a;stroke:none;stroke-width:0.239519;stroke-miterlimit:4;stroke-dasharray:none"
     id="82"
     class="seg82" />
  <path
     d="m 85.949814,12.56681 -1.65961,1.345532 -0.0436,0.498602 -0.39914,4.567396 -0.007,0.0769 -0.0203,0.23243 -0.005,0.0532 h -0.005 c -0.0132,0.0578 -0.0403,0.11041 -0.0753,0.15664 l 1.51522,2.272193 c 0.3707,-0.27702 0.6299,-0.702633 0.67186,-1.182753 l 0.65293,-7.471397 z"
     style="fill:#ff2a2a;stroke:none;stroke-width:0.239519;stroke-miterlimit:4;stroke-dasharray:none"
     id="78"
     class="seg78" />
  <path
     d="m 79.413354,19.3409 -0.10889,1.24608 c -0.0733,0.83887 0.54301,1.514213 1.38189,1.514213 h 3.58924 c 0.25424,0 0.49832,-0.0628 0.71787,-0.17263 l -1.51407,-2.270443 c -0.0225,0.004 -0.0453,0.006 -0.0687,0.006 h -1.38036 c -0.19044,0 -0.33309,-0.14052 -0.34305,-0.32357 h -0.005 z"
     style="fill:#ff2a2a;stroke:none;stroke-width:0.239519;stroke-miterlimit:4;stroke-dasharray:none"
     id="32"
     class="seg32" />
  <path
     class="seg182"
     id="182"
     style="fill:#ff2a2a;stroke:none;stroke-width:0.905269;stroke-miterlimit:4;stroke-dasharray:none"
     d="M 305.34375 17.082031 C 305.09959 17.657895 304.93702 18.273212 304.88086 18.916016 L 302.71875 43.640625 L 305.29297 46.103516 L 311.48828 41.416016 L 313.02344 23.841797 L 305.34375 17.082031 z "
     transform="scale(0.26458333)" />
  <path
     class="seg112"
     id="112"
     style="fill:#ff2a2a;stroke:none;stroke-width:0.905269;stroke-miterlimit:4;stroke-dasharray:none"
     d="M 327.2832 13.853516 L 321.14258 22.837891 L 321.17578 22.837891 L 321.10742 23.632812 L 321.08789 23.841797 L 319.55273 41.416016 L 324.92188 46.099609 L 327.7168 43.806641 L 329.89062 18.916016 C 330.083 16.712993 329.01536 14.810794 327.2832 13.853516 z "
     transform="scale(0.26458333)" />
  <path
     d="m 82.312724,3.49072 c -0.56516,0 -1.08216,0.307136 -1.38225,0.763679 l 2.03027,1.788052 h 1.64566 l 1.70452,-2.493454 c -0.12847,-0.03718 -0.26502,-0.05828 -0.40895,-0.05828 z"
     style="fill:#ff2a2a;stroke:none;stroke-width:0.239519;stroke-miterlimit:4;stroke-dasharray:none"
     id="162"
     class="seg162" />
  <path
     id="108"
     class="seg108"
     style="fill:#ff2a2a;stroke:none;stroke-width:0.239519;stroke-miterlimit:4;stroke-dasharray:none"
     d="m 91.788814,11.320523 -1.41756,1.074978 1.22275,1.154281 h 2.13397 l 1.42449,-1.154281 -1.22968,-1.074978 z" />
  <path
     id="58"
     class="seg58"
     style="fill:#ff2a2a;stroke:none;stroke-width:0.239519;stroke-miterlimit:4;stroke-dasharray:none"
     d="m 90.137664,12.566585 -0.77796,0.59215 -0.50858,5.819605 h 2.26847 l 0.39915,-4.567396 0.0436,-0.498602 z" />
  <path
     id="53"
     class="seg53"
     style="fill:#ff2a2a;stroke:none;stroke-width:0.239519;stroke-miterlimit:4;stroke-dasharray:none"
     d="m 95.355904,12.56681 -1.65962,1.345532 -0.0436,0.498602 -0.39915,4.567396 -0.007,0.0769 -0.0203,0.23243 -0.005,0.0532 h -0.005 c -0.0132,0.0578 -0.0403,0.11041 -0.0752,0.15664 l 1.51522,2.272193 c 0.3707,-0.27702 0.6299,-0.702633 0.67185,-1.182753 l 0.65293,-7.471397 z" />
  <path
     id="8"
     class="seg8"
     style="fill:#ff2a2a;stroke:none;stroke-width:0.239519;stroke-miterlimit:4;stroke-dasharray:none"
     d="m 88.819444,19.3409 -0.1089,1.24608 c -0.0733,0.83887 0.54302,1.514213 1.38189,1.514213 h 3.58925 c 0.25423,0 0.49831,-0.0628 0.71786,-0.17263 l -1.51406,-2.270443 c -0.0225,0.004 -0.0453,0.006 -0.0687,0.006 h -1.38036 c -0.19044,0 -0.33309,-0.14052 -0.34305,-0.32357 h -0.005 z" />
  <path
     class="seg158"
     id="158"
     style="fill:#ff2a2a;stroke:none;stroke-width:0.905269;stroke-miterlimit:4;stroke-dasharray:none"
     d="M 340.89453 17.082031 C 340.65037 17.657895 340.48589 18.273212 340.42969 18.916016 L 338.26953 43.642578 L 340.84375 46.103516 L 347.03906 41.416016 L 348.57422 23.841797 L 340.89453 17.082031 z "
     transform="scale(0.26458333)" />
  <path
     class="seg103"
     id="103"
     style="fill:#ff2a2a;stroke:none;stroke-width:0.905269;stroke-miterlimit:4;stroke-dasharray:none"
     d="M 362.83398 13.853516 L 356.69336 22.837891 L 356.72656 22.837891 L 356.6582 23.632812 L 356.63867 23.841797 L 355.10352 41.416016 L 360.47266 46.099609 L 363.26758 43.804688 L 365.44141 18.916016 C 365.63378 16.712997 364.56607 14.810794 362.83398 13.853516 z "
     transform="scale(0.26458333)" />
  <path
     id="137"
     class="seg137"
     style="fill:#ff2a2a;stroke:none;stroke-width:0.239519;stroke-miterlimit:4;stroke-dasharray:none"
     d="m 91.718814,3.49072 c -0.56516,0 -1.08216,0.307136 -1.38226,0.763679 l 2.03028,1.788052 h 1.64566 l 1.70451,-2.493454 c -0.12846,-0.03718 -0.26501,-0.05828 -0.40894,-0.05828 z" />
  <path
     d="m 101.19491,11.320523 -1.417566,1.074978 1.222746,1.154281 h 2.13397 l 1.4245,-1.154281 -1.22968,-1.074978 z"
     style="fill:#ff2a2a;stroke:none;stroke-width:0.239519;stroke-miterlimit:4;stroke-dasharray:none"
     id="127"
     class="seg127" />
  <path
     d="m 99.543764,12.566585 -0.77797,0.59215 -0.50858,5.819605 h 2.268476 l 0.39914,-4.567396 0.0436,-0.498602 z"
     style="fill:#ff2a2a;stroke:none;stroke-width:0.239519;stroke-miterlimit:4;stroke-dasharray:none"
     id="77"
     class="seg77" />
  <path
     d="m 104.76199,12.56681 -1.65961,1.345532 -0.0436,0.498602 -0.39915,4.567396 -0.007,0.0769 -0.0203,0.23243 -0.005,0.0532 h -0.005 c -0.0132,0.0578 -0.0403,0.11041 -0.0753,0.15664 l 1.51522,2.272193 c 0.3707,-0.27702 0.6299,-0.702633 0.67186,-1.182753 l 0.65293,-7.471397 z"
     style="fill:#ff2a2a;stroke:none;stroke-width:0.239519;stroke-miterlimit:4;stroke-dasharray:none"
     id="57"
     class="seg57" />
  <path
     d="m 98.225534,19.3409 -0.1089,1.24608 c -0.0733,0.83887 0.54302,1.514213 1.38189,1.514213 h 3.589246 c 0.25423,0 0.49832,-0.0628 0.71787,-0.17263 l -1.51407,-2.270443 c -0.0225,0.004 -0.0453,0.006 -0.0687,0.006 h -1.38036 c -0.19044,0 -0.3331,-0.14052 -0.34306,-0.32357 h -0.005 z"
     style="fill:#ff2a2a;stroke:none;stroke-width:0.239519;stroke-miterlimit:4;stroke-dasharray:none"
     id="27"
     class="seg27" />
  <path
     class="seg161"
     id="161"
     style="fill:#ff2a2a;stroke:none;stroke-width:0.905269;stroke-miterlimit:4;stroke-dasharray:none"
     d="M 376.44531 17.082031 C 376.20116 17.657895 376.03663 18.273212 375.98047 18.916016 L 373.82031 43.642578 L 376.39453 46.103516 L 382.58789 41.416016 L 384.125 23.841797 L 376.44531 17.082031 z "
     transform="scale(0.26458333)" />
  <path
     class="seg107"
     id="107"
     style="fill:#ff2a2a;stroke:none;stroke-width:0.905269;stroke-miterlimit:4;stroke-dasharray:none"
     d="M 398.38477 13.853516 L 392.24414 22.837891 L 392.27734 22.837891 L 392.20898 23.632812 L 392.18945 23.841797 L 390.6543 41.416016 L 396.02344 46.099609 L 398.81836 43.804688 L 400.99219 18.916016 C 401.18457 16.712993 400.11689 14.810794 398.38477 13.853516 z "
     transform="scale(0.26458333)" />
  <path
     d="m 101.1249,3.49072 c -0.56516,0 -1.08216,0.307136 -1.382246,0.763679 l 2.030266,1.788052 h 1.64566 l 1.70452,-2.493454 c -0.12847,-0.03718 -0.26502,-0.05828 -0.40895,-0.05828 z"
     style="fill:#ff2a2a;stroke:none;stroke-width:0.239519;stroke-miterlimit:4;stroke-dasharray:none"
     id="157"
     class="seg157" />
  <path
     id="102"
     class="seg102"
     style="fill:#ff2a2a;stroke:none;stroke-width:0.239519;stroke-miterlimit:4;stroke-dasharray:none"
     d="m 110.60099,11.320523 -1.41757,1.074978 1.22275,1.154281 h 2.13397 l 1.4245,-1.154281 -1.22968,-1.074978 z" />
  <path
     id="52"
     class="seg52"
     style="fill:#ff2a2a;stroke:none;stroke-width:0.239519;stroke-miterlimit:4;stroke-dasharray:none"
     d="m 108.94984,12.566585 -0.77797,0.59215 -0.50858,5.819605 h 2.26848 l 0.39914,-4.567396 0.0436,-0.498602 z" />
  <path
     id="80"
     class="seg80"
     style="fill:#ff2a2a;stroke:none;stroke-width:0.239519;stroke-miterlimit:4;stroke-dasharray:none"
     d="m 114.16807,12.56681 -1.65961,1.345532 -0.0436,0.498602 -0.39915,4.567396 -0.007,0.0769 -0.0203,0.23243 -0.005,0.0532 h -0.005 c -0.0132,0.0578 -0.0403,0.11041 -0.0753,0.15664 l 1.51522,2.272193 c 0.3707,-0.27702 0.6299,-0.702633 0.67186,-1.182753 l 0.65293,-7.471397 z" />
  <path
     id="2"
     class="seg2"
     style="fill:#ff2a2a;stroke:none;stroke-width:0.239519;stroke-miterlimit:4;stroke-dasharray:none"
     d="m 107.63161,19.3409 -0.1089,1.24608 c -0.0733,0.83887 0.54302,1.514213 1.38189,1.514213 h 3.58925 c 0.25423,0 0.49832,-0.0628 0.71787,-0.17263 l -1.51407,-2.270443 c -0.0225,0.004 -0.0453,0.006 -0.0687,0.006 h -1.38036 c -0.19044,0 -0.3331,-0.14052 -0.34306,-0.32357 h -0.005 z" />
  <path
     class="seg136"
     id="136"
     style="fill:#ff2a2a;stroke:none;stroke-width:0.905269;stroke-miterlimit:4;stroke-dasharray:none"
     d="M 411.99414 17.082031 C 411.74998 17.657895 411.58741 18.273212 411.53125 18.916016 L 409.37109 43.642578 L 411.94531 46.103516 L 418.13867 41.416016 L 419.67578 23.841797 L 411.99414 17.082031 z "
     transform="scale(0.26458333)" />
  <path
     class="seg130"
     id="130"
     style="fill:#ff2a2a;stroke:none;stroke-width:0.905269;stroke-miterlimit:4;stroke-dasharray:none"
     d="M 433.93555 13.853516 L 427.79492 22.837891 L 427.82812 22.837891 L 427.75781 23.632812 L 427.74023 23.841797 L 426.20312 41.416016 L 431.57422 46.099609 L 434.36914 43.804688 L 436.54297 18.916016 C 436.73535 16.712993 435.66767 14.810794 433.93555 13.853516 z "
     transform="scale(0.26458333)" />
  <path
     id="180"
     class="seg180"
     style="fill:#ff2a2a;stroke:none;stroke-width:0.239519;stroke-miterlimit:4;stroke-dasharray:none"
     d="m 110.53098,3.49072 c -0.56516,0 -1.08216,0.307136 -1.38225,0.763679 l 2.03027,1.788052 h 1.64566 l 1.70452,-2.493454 c -0.12847,-0.03718 -0.26502,-0.05828 -0.40895,-0.05828 z" />
  <path
     d="m 62.842254,10.796325 v 1.245192 h -1.76968 v -1.245192 z m 2.53866,1.245192 h -1.83289 v -1.245192 h 1.83289 z m -1.83289,2.065879 v -1.287647 h 1.83289 v 1.287647 z m -2.47545,0 v -1.287647 h 1.76968 v 1.287647 z m 0,0.806535 h 1.76968 v 2.292277 h 0.70577 v -2.292277 h 1.83289 v 1.287635 c 0,0.183956 -0.0421,0.24055 -0.17908,0.24055 -0.1264,0 -0.57936,0.01414 -1.07445,-0.01414 0.0948,0.24055 0.18961,0.60845 0.22121,0.86314 0.70577,0 1.14819,-0.01414 1.42207,-0.155642 0.27388,-0.155653 0.35815,-0.410343 0.35815,-0.919745 V 9.98979 h -1.32726 c -0.23175,-0.169793 -0.50563,-0.367889 -0.81111,-0.565985 0.77951,-0.523554 1.56954,-1.231041 2.12784,-1.93854 l -0.48456,-0.495239 -0.14747,0.05656 h -5.14052 v 0.834849 h 4.39261 c -0.42135,0.410343 -0.93751,0.820686 -1.44313,1.11783 -0.49509,-0.282992 -1.01125,-0.565985 -1.46421,-0.778232 l -0.49509,0.594288 c 0.63203,0.311295 1.37994,0.764092 2.00143,1.174435 h -3.00214 v 7.273035 h 0.73737 z m -1.59061,-5.858038 c -0.33709,-0.693347 -1.11659,-1.641384 -1.78022,-2.278126 l -0.54776,0.650893 c 0.66363,0.665044 1.42207,1.655535 1.74861,2.348871 z m -0.23175,2.94317 h -2.27531 v 0.990491 h 1.51688 v 3.636506 c -0.53723,0.580148 -1.13766,1.174447 -1.64328,1.598942 l 0.37921,1.018777 c 0.60043,-0.594283 1.15873,-1.202733 1.69595,-1.825324 0.64257,1.117842 1.59061,1.613084 2.97055,1.683834 1.15872,0.0707 3.39189,0.0424 4.56115,-0.0283 0.0421,-0.31129 0.15801,-0.79239 0.24228,-1.03294 -1.25353,0.113234 -3.65524,0.155653 -4.80343,0.08495 -1.23246,-0.05656 -2.13837,-0.523554 -2.644,-1.58479 z"
     style="font-style:normal;font-variant:normal;font-weight:normal;font-stretch:normal;font-size:12.2087px;line-height:1.25;font-family:'Noto Sans CJK JP';-inkscape-font-specification:'Noto Sans CJK JP, Normal';font-variant-ligatures:normal;font-variant-caps:normal;font-variant-numeric:normal;font-variant-east-asian:normal;fill:#ff0000;fill-opacity:1;stroke:none;stroke-width:0.305217"
     id="s"
     class="seg3" />
  <path
     d="m 70.342354,11.362321 h 3.97126 v 1.386683 h -3.97126 z m 5.71988,3.339362 h -3.23389 v -1.160284 h 2.26477 v -2.971473 h -5.49866 v 2.971473 h 2.44385 v 1.160284 h -3.38137 v 4.046861 h 0.77951 v -3.084672 h 2.60186 v 3.721417 h 0.79004 v -3.721417 h 2.44385 v 1.980982 c 0,0.169805 -0.0527,0.212247 -0.21068,0.226398 -0.15801,0.01414 -0.7163,0.01414 -1.34833,-0.01414 0.10534,0.283004 0.23174,0.665044 0.27388,0.962187 0.8111,0 1.3378,0 1.66435,-0.169792 0.32654,-0.155654 0.41082,-0.438646 0.41082,-0.990491 z M 75.040444,6.56552 c -0.20014,0.509391 -0.57936,1.259332 -0.87431,1.72628 l 0.63203,0.35375 c 0.30549,-0.424495 0.70577,-1.075388 1.05339,-1.69799 z m 1.66435,2.08003 h -3.93966 V 6.45232 h -0.79004 v 2.19323 h -2.20157 l 0.6531,-0.396204 c -0.17908,-0.466937 -0.54776,-1.160284 -0.89538,-1.655524 l -0.69523,0.382041 c 0.30548,0.509391 0.66363,1.202738 0.82164,1.669687 h -1.68542 v 3.028067 h 0.74791 V 9.565284 h 7.21568 v 2.108333 h 0.76897 z"
     style="font-style:normal;font-variant:normal;font-weight:normal;font-stretch:normal;font-size:12.2087px;line-height:1.25;font-family:'Noto Sans CJK JP';-inkscape-font-specification:'Noto Sans CJK JP, Normal';font-variant-ligatures:normal;font-variant-caps:normal;font-variant-numeric:normal;font-variant-east-asian:normal;fill:#ff0000;fill-opacity:1;stroke:none;stroke-width:0.305217"
     id="3"
     class="seg3" />
  <path
     d="m 121.80968,15.162492 v -3.504819 h 2.54267 v 3.504819 z m -3.28087,-3.504819 h 2.44242 v 3.504819 h -2.44242 z m 6.68021,-1.181115 h -7.52777 V 21.41467 h 0.84756 v -5.071074 h 5.82354 v 3.569014 c 0,0.23109 -0.0547,0.30812 -0.22784,0.30812 -0.17315,0.0128 -0.75642,0.0256 -1.33968,-0.0128 0.1367,0.32096 0.2734,0.860161 0.30986,1.19395 0.8111,0 1.33968,-0.0256 1.66777,-0.21825 0.3372,-0.205409 0.44656,-0.564879 0.44656,-1.25814 z"
     style="font-style:normal;font-variant:normal;font-weight:500;font-stretch:normal;font-size:10.8167px;line-height:1.25;font-family:'Noto Sans CJK JP';-inkscape-font-specification:'Noto Sans CJK JP, Medium';font-variant-ligatures:normal;font-variant-caps:normal;font-variant-numeric:normal;font-variant-east-asian:normal;fill:#ff0000;fill-opacity:1;stroke:none;stroke-width:0.270415"
     id="46"
     class="seg46" />
  <path
     d="m 6.935511,3.662611 c -0.47126,0 -0.85059,0.379334 -0.85059,0.850593 V 21.06827 c 0,0.471263 0.37933,0.850593 0.85059,0.850593 h 46.71757 c 0.47126,0 0.850591,-0.37933 0.850591,-0.850593 V 4.513204 c 0,-0.471259 -0.379331,-0.850593 -0.850591,-0.850593 z M 32.890002,6.296042 33.88632,6.791103 C 33.200052,8.036282 32.115252,9.36639 31.119051,10.201231 31.008362,9.90409 30.753852,9.380741 30.58782,9.111891 31.45119,8.40441 32.425111,7.258234 32.890002,6.296042 Z m 1.80403,0.381889 h 5.33559 v 4.74028 h -5.33559 z m -23.189291,0.09922 h 1.1958 c -0.0221,0.268851 -0.0556,0.735787 -0.0667,1.075388 -0.0111,0.33958 -0.0223,0.792544 -0.0444,1.287775 0.77482,-0.113192 1.56081,-0.31156 2.15853,-0.537951 l 0.0222,1.38648 c -0.63093,0.183938 -1.4387,0.353954 -2.20245,0.467154 -0.0111,0.565991 -0.0222,1.118089 -0.0222,1.613339 v 0.481108 c 0.79696,-0.297141 1.61583,-0.438735 2.279959,-0.438735 1.627131,0 2.855641,1.118039 2.855641,2.915068 0,1.669679 -0.752271,2.829621 -2.36833,3.324863 -0.498101,0.141499 -0.98541,0.184337 -1.38389,0.198437 L 13.53047,17.134659 c 0.442761,0 0.907681,3.97e-4 1.317231,-0.0987 0.91872,-0.212249 1.72651,-0.83506 1.72651,-2.02365 0,-1.075378 -0.76338,-1.669664 -1.75958,-1.669664 -0.77482,0 -1.516861,0.170013 -2.247411,0.467154 0.0111,1.16029 0.0444,2.334797 0.0444,2.886646 0,1.48572 -0.431841,1.909961 -1.073831,1.909961 -0.951929,0 -2.412779,-1.103476 -2.412779,-2.461866 0,-1.18859 1.117719,-2.41977 2.412779,-3.141411 v -0.877464 c 0,-0.49525 2.91e-4,-1.018484 0.0114,-1.542026 -0.26566,0.0283 -0.50903,0.04238 -0.71934,0.04238 -0.48703,0 -1.0075,-0.0142 -1.43919,-0.0708 l -0.0331,-1.358571 c 0.61986,0.0991 1.05156,0.113169 1.45004,0.113169 0.23244,0 0.48675,-0.01432 0.75241,-0.02842 0,-0.636741 0.0114,-1.14573 0.0114,-1.400431 0,-0.297141 -0.0335,-0.849109 -0.0667,-1.10381 z m 32.221811,0.0708 h 6.187218 v 4.825029 h -6.187218 z m -23.333461,0.02842 h 8.578289 v 3.254066 H 20.393091 Z M 35.690352,7.640149 V 8.58841 h 3.29851 V 7.640146 Z M 21.356341,7.880963 v 1.244884 h 1.57148 V 7.88096 Z m 2.45721,0 v 1.244884 h 1.61593 V 7.88096 Z m 2.49029,0 v 1.244884 h 1.67173 V 7.88096 Z m 18.40766,0.226343 v 2.306317 h 4.150651 V 8.107306 Z m -28.71246,0.211873 c 0.80803,0.523539 2.03658,1.457846 2.59003,2.009695 l -0.54261,1.131716 c -0.5313,-0.622591 -1.84845,-1.599084 -2.53472,-2.066026 z m 17.134359,1.04748 0.90795,0.46664 c -0.25458,0.580149 -0.587039,1.17479 -0.930169,1.754931 v 7.64087 h -0.99581 v -6.183595 c -0.376341,0.523539 -0.786371,0.976326 -1.162719,1.372526 -0.0885,-0.29714 -0.35383,-1.00471 -0.519862,-1.33015 0.985131,-0.891443 2.047542,-2.306241 2.70061,-3.721222 z m 2.556952,0.127124 v 0.948264 h 3.29851 V 9.49378 Z m -14.666291,1.344105 h 7.327721 v 6.098852 h -7.327721 z m 1.02939,0.877467 v 0.891418 h 5.235859 v -0.891418 z m 12.02098,0.509529 h 6.39754 v 1.08934 h -1.372529 v 1.03301 h 1.582849 v 1.132231 h -1.582849 v 2.391069 c 0,0.650899 -0.0993,0.976186 -0.464571,1.160136 -0.36527,0.19815 -0.896689,0.21239 -1.682581,0.21239 -0.0554,-0.35374 -0.199458,-0.848958 -0.332279,-1.188559 0.553439,0.0282 1.084749,0.02805 1.239721,0.01395 0.166029,-0.01415 0.21032,-0.05654 0.21032,-0.226343 V 15.47946 H 33.80881 v -1.132231 h 4.261242 v -1.03301 h -3.995621 z m 8.09149,0.820621 H 46.1724 v 6.098335 h -1.018029 v -0.636653 h -2.01486 v 0.735873 h -0.97359 z m 5.091681,0 h 4.205949 V 19.17226 H 50.43415 v -0.665073 h -2.191599 v 0.735873 h -0.984949 z m -25.204151,0.396359 v 0.876948 h 5.235859 v -0.876948 z m 21.08606,0.862997 v 2.942971 h 2.01486 v -2.942971 z m 5.10304,0 v 2.942971 h 2.191599 v -2.942971 z m -36.68251,0.01395 c -0.79696,0.49526 -1.35031,1.202883 -1.35031,1.768885 0,0.551839 0.6422,1.03301 1.01855,1.03301 0.23244,0 0.36535,-0.184181 0.36535,-0.651121 0,-0.438642 -0.0225,-1.245174 -0.0336,-2.150774 z m 10.49341,0.835091 v 0.91984 h 5.235859 v -0.91984 z m 13.33821,0.410311 c 0.48703,0.565981 1.08443,1.372261 1.36116,1.909961 l -0.774631,0.707451 c -0.25459,-0.537689 -0.83021,-1.386261 -1.317239,-1.99471 z m -12.47469,1.400947 0.94103,0.537435 c -0.90765,0.721641 -2.32473,1.400795 -3.44269,1.782835 -0.1771,-0.25469 -0.54218,-0.749774 -0.77463,-0.976165 1.16223,-0.282998 2.50147,-0.806402 3.27629,-1.344105 z m 3.33158,0.01395 c 1.22864,0.481089 2.612519,1.131919 3.442681,1.598869 l -1.09606,0.679031 c -0.708401,-0.45279 -1.93675,-1.089162 -3.154331,-1.584404 z"
     style="fill:#ff0000;stroke:none;stroke-width:0.561954;stroke-miterlimit:4;stroke-dasharray:none"
     id="13"
     class="seg13" />
  <metadata
     id="metadata264">
    <rdf:RDF>
      <cc:Work
         rdf:about="">
        <dc:title></dc:title>
        <dc:format>image/svg+xml</dc:format>
        <dc:type
           rdf:resource="http://purl.org/dc/dcmitype/StillImage" />
      </cc:Work>
    </rdf:RDF>
  </metadata>
</svg>
