<?xml version="1.0" encoding="UTF-8" standalone="no"?>
<svg
   xmlns:dc="http://purl.org/dc/elements/1.1/"
   xmlns:cc="http://creativecommons.org/ns#"
   xmlns:rdf="http://www.w3.org/1999/02/22-rdf-syntax-ns#"
   xmlns:svg="http://www.w3.org/2000/svg"
   xmlns="http://www.w3.org/2000/svg"
   width="232.75735mm"
   height="80.619019mm"
   viewBox="0 0 232.75735 80.619019"
   version="1.1"
   id="svg3069">
  <defs
     id="defs3063" />
  <metadata
     id="metadata3066">
    <rdf:RDF>
      <cc:Work
         rdf:about="">
        <dc:format>image/svg+xml</dc:format>
        <dc:type
           rdf:resource="http://purl.org/dc/dcmitype/StillImage" />
        <dc:title></dc:title>
      </cc:Work>
    </rdf:RDF>
  </metadata>
  <g
     id="layer1"
     transform="translate(52.878677,9.3154621)">
    <rect
       y="-9.3154621"
       x="-52.878677"
       height="80.619019"
       width="232.75735"
       id="rect1349"
       style="opacity:1;fill:#bec8b7;fill-opacity:1;stroke:none;stroke-width:0.332335;stroke-miterlimit:4;stroke-dasharray:none" />
    <rect
       style="opacity:0.15;fill:#ff0000;fill-opacity:1;stroke:none;stroke-width:0.167367;stroke-miterlimit:4;stroke-dasharray:none"
       id="rect1631"
       width="59.032162"
       height="80.619019"
       x="-52.878677"
       y="-9.3154621" />
    <path
       id="path1351"
       class="seg1 com1"
       style="fill:#000000;stroke:none;stroke-width:0.852776;stroke-miterlimit:4;stroke-dasharray:none"
       d="m 21.156759,25.481559 -5.047078,3.827341 4.353459,4.109688 h 7.597741 l 5.071758,-4.109688 -4.37814,-3.827341 z" />
    <path
       id="path1353"
       class="seg0 com1"
       style="fill:#000000;stroke:none;stroke-width:0.852776;stroke-miterlimit:4;stroke-dasharray:none"
       d="m 15.278029,29.91801 -2.769848,2.10828 -1.810732,20.72005 h 8.076631 l 1.421101,-16.261699 0.155149,-1.775222 z" />
    <path
       id="path1355"
       class="seg2 com1"
       style="fill:#000000;stroke:none;stroke-width:0.852776;stroke-miterlimit:4;stroke-dasharray:none"
       d="m 33.856941,29.91882 -5.90886,4.790599 -0.155152,1.775222 -1.421108,16.261699 -0.024,0.273791 -0.0723,0.827539 -0.01659,0.189508 h -0.0195 c -0.0471,0.205833 -0.143381,0.393081 -0.267931,0.557702 l 5.394759,8.08989 c 1.319821,-0.986301 2.242683,-2.50167 2.392061,-4.21109 l 2.32469,-26.601021 z" />
    <path
       id="path1357"
       class="seg1 com2"
       style="fill:#000000;stroke:none;stroke-width:0.852776;stroke-miterlimit:4;stroke-dasharray:none"
       d="m 10.584641,54.037178 -0.38772,4.436502 c -0.2610124,2.98673 1.93335,5.3912 4.920059,5.3912 h 12.7791 c 0.905171,0 1.77419,-0.223649 2.555859,-0.61464 l -5.39065,-8.08363 c -0.08,0.01511 -0.161388,0.0226 -0.244538,0.0226 H 19.90215 c -0.678051,0 -1.18594,-0.500309 -1.221391,-1.152038 h -0.0195 z" />
    <path
       class="seg0 com0"
       id="path1359"
       style="fill:#000000;stroke:none;stroke-width:0.852776;stroke-miterlimit:4;stroke-dasharray:none"
       d="m 15.48197,1.2681693 c -0.229899,0.54247 -0.383871,1.12211 -0.436779,1.72765 l -2.04275,23.3773907 2.395299,2.26115 5.871641,-4.44351 1.446858,-16.5549707 z" />
    <path
       id="path1361"
       style="fill:#000000;stroke:none;stroke-width:0.852776;stroke-miterlimit:4;stroke-dasharray:none"
       d="m 36.149741,-1.7737307 -5.785072,8.4635 h 0.032 l -0.0655,0.74878 -0.0172,0.19733 -1.446858,16.5549707 5.095568,4.444288 2.5864,-2.095788 2.05758,-23.5435407 c 0.181359,-2.07527996 -0.825251,-3.86776986 -2.456931,-4.76954 z"
       class="seg2 com0" />
    <path
       id="path1363"
       class="seg1 com0"
       style="fill:#000000;stroke:none;stroke-width:0.852776;stroke-miterlimit:4;stroke-dasharray:none"
       d="m 20.907521,-2.3955307 c -2.012201,0 -3.85292,1.09352 -4.921361,2.71899014 l 7.22856,6.36614986 h 5.859171 l 6.06873,-8.87765 c -0.45738,-0.13237 -0.94355,-0.20749 -1.45601,-0.20749 z" />
    <path
       d="m 33.541741,61.335641 q 0,-0.764252 0.62484,-1.2959 0.62484,-0.531662 1.5621,-0.531662 0.85912,0 1.522989,0.59813 0.702961,0.598109 0.702961,1.39559 0,0.96361 -0.8982,2.259521 -0.898202,1.295921 -1.913551,1.92727 l -0.898189,-0.531681 q 0.429569,-0.53163 0.781029,-1.03007 0.351451,-0.465191 0.507669,-0.830728 -1.015349,-0.0331 -1.523029,-0.564862 -0.468619,-0.56488 -0.468619,-1.395608 z"
       style="font-style:normal;font-variant:normal;font-weight:normal;font-stretch:normal;font-size:10.5833px;line-height:1.25;font-family:'富士ポップ';-inkscape-font-specification:'富士ポップ, Normal';font-variant-ligatures:normal;font-variant-caps:normal;font-variant-numeric:normal;font-variant-east-asian:normal;fill:#000000;fill-opacity:1;stroke:none;stroke-width:0.720452"
       id="path1367"
       class="seg2 com2" />
    <path
       d="m 49.290493,25.481559 -5.047092,3.827341 4.353462,4.109688 h 7.59773 l 5.07175,-4.109688 -4.37812,-3.827341 z"
       style="fill:#000000;stroke:none;stroke-width:0.852776;stroke-miterlimit:4;stroke-dasharray:none"
       id="path1369"
       class="seg4 com1" />
    <path
       d="m 43.41177,29.91801 -2.76987,2.10828 -1.810728,20.72005 h 8.07661 l 1.421141,-16.261699 0.15513,-1.775222 z"
       style="fill:#000000;stroke:none;stroke-width:0.852776;stroke-miterlimit:4;stroke-dasharray:none"
       id="path1371"
       class="seg3 com1" />
    <path
       d="m 61.990683,29.91882 -5.9089,4.790599 -0.15513,1.775222 -1.42111,16.261699 -0.024,0.273791 -0.0723,0.827539 -0.0166,0.189508 h -0.0195 c -0.0471,0.205833 -0.14338,0.393081 -0.26793,0.557702 l 5.39476,8.08989 c 1.31983,-0.986301 2.24269,-2.50167 2.39207,-4.21109 l 2.32468,-26.601021 z"
       style="fill:#000000;stroke:none;stroke-width:0.852776;stroke-miterlimit:4;stroke-dasharray:none"
       id="path1373"
       class="seg5 com1" />
    <path
       d="m 38.718361,54.037178 -0.38771,4.436502 c -0.261011,2.98673 1.93334,5.3912 4.920039,5.3912 h 12.779113 c 0.90517,0 1.7742,-0.223649 2.55587,-0.61464 l -5.39064,-8.08363 c -0.08,0.01511 -0.16141,0.0226 -0.24455,0.0226 h -4.91462 c -0.67802,0 -1.185922,-0.500309 -1.221392,-1.152038 h -0.0195 z"
       style="fill:#000000;stroke:none;stroke-width:0.852776;stroke-miterlimit:4;stroke-dasharray:none"
       id="path1375"
       class="seg4 com2" />
    <path
       class="seg3 com0"
       id="path1377"
       style="fill:#000000;stroke:none;stroke-width:0.852776;stroke-miterlimit:4;stroke-dasharray:none"
       d="m 43.614949,1.2681693 c -0.229899,0.54247 -0.383069,1.12211 -0.435977,1.72765 L 41.136211,26.37321 43.5315,28.63436 49.403153,24.19085 50.850003,7.6358793 Z" />
    <path
       class="seg5 com0"
       id="path1379"
       style="fill:#000000;stroke:none;stroke-width:0.852776;stroke-miterlimit:4;stroke-dasharray:none"
       d="m 64.283503,-1.7737307 -5.78507,8.4635 h 0.032 l -0.0655,0.74878 -0.0172,0.19733 -1.44686,16.5549707 5.09559,4.444288 2.5864,-2.095788 2.05756,-23.5435407 c 0.18137,-2.07527996 -0.82525,-3.86776986 -2.45692,-4.76954 z" />
    <path
       d="m 49.041243,-2.3955307 c -2.012214,0 -3.852904,1.09352 -4.921373,2.71899014 l 7.228553,6.36614986 h 5.85919 l 6.06874,-8.87765 c -0.45741,-0.13237 -0.94357,-0.20749 -1.45603,-0.20749 z"
       style="fill:#000000;stroke:none;stroke-width:0.852776;stroke-miterlimit:4;stroke-dasharray:none"
       id="path1381"
       class="seg4 com0" />
    <path
       id="path1385"
       class="seg7 com1"
       style="fill:#000000;stroke:none;stroke-width:0.852776;stroke-miterlimit:4;stroke-dasharray:none"
       d="m 77.424173,25.481559 -5.04709,3.827341 4.35348,4.109688 h 7.59774 l 5.07176,-4.109688 -4.37814,-3.827341 z" />
    <path
       id="path1387"
       class="seg6 com1"
       style="fill:#000000;stroke:none;stroke-width:0.852776;stroke-miterlimit:4;stroke-dasharray:none"
       d="m 71.545433,29.91801 -2.76984,2.10828 -1.81072,20.72005 h 8.07663 l 1.4211,-16.261699 0.15513,-1.775222 z" />
    <path
       id="path1389"
       class="seg8 com1"
       style="fill:#000000;stroke:none;stroke-width:0.852776;stroke-miterlimit:4;stroke-dasharray:none"
       d="m 90.124363,29.91882 -5.90887,4.790599 -0.15514,1.775222 -1.42112,16.261699 -0.024,0.273791 -0.0723,0.827539 -0.0166,0.189508 h -0.0195 c -0.0471,0.205833 -0.14339,0.393081 -0.26793,0.557702 l 5.39476,8.08989 c 1.31983,-0.986301 2.24268,-2.50167 2.39206,-4.21109 l 2.32468,-26.601021 z" />
    <path
       id="path1391"
       class="seg7 com2"
       style="fill:#000000;stroke:none;stroke-width:0.852776;stroke-miterlimit:4;stroke-dasharray:none"
       d="m 66.852063,54.037178 -0.38771,4.436502 c -0.26102,2.98673 1.93332,5.3912 4.92005,5.3912 h 12.7791 c 0.90515,0 1.77417,-0.223649 2.55584,-0.61464 l -5.39063,-8.08363 c -0.08,0.01511 -0.1614,0.0226 -0.24454,0.0226 h -4.91461 c -0.67805,0 -1.18593,-0.500309 -1.22139,-1.152038 h -0.0195 z" />
    <path
       class="seg6 com0"
       id="path1393"
       style="fill:#000000;stroke:none;stroke-width:0.852776;stroke-miterlimit:4;stroke-dasharray:none"
       d="m 71.748713,1.2681693 c -0.2299,0.54247 -0.38308,1.12211 -0.436,1.72765 l -2.04276,23.3773907 2.39531,2.26115 5.87165,-4.44351 1.44684,-16.5549707 z" />
    <path
       class="seg8 com0"
       id="path1395"
       style="fill:#000000;stroke:none;stroke-width:0.852776;stroke-miterlimit:4;stroke-dasharray:none"
       d="m 92.417263,-1.7737307 -5.78508,8.4635 h 0.032 l -0.0655,0.74878 -0.0172,0.19733 -1.44684,16.5549707 5.09558,4.444288 2.58639,-2.095788 2.05757,-23.5435407 c 0.18136,-2.07527996 -0.82525,-3.86776986 -2.45691,-4.76954 z" />
    <path
       id="path1397"
       class="seg7 com0"
       style="fill:#000000;stroke:none;stroke-width:0.852776;stroke-miterlimit:4;stroke-dasharray:none"
       d="m 77.174923,-2.3955307 c -2.01218,0 -3.8529,1.09352 -4.92135,2.71899014 l 7.22856,6.36614986 h 5.85918 l 6.06872,-8.87765 c -0.45737,-0.13237 -0.94356,-0.20749 -1.456,-0.20749 z" />
    <path
       d="m 105.5579,25.481559 -5.04708,3.827341 4.35346,4.109688 h 7.59775 l 5.07175,-4.109688 -4.37815,-3.827341 z"
       style="fill:#000000;stroke:none;stroke-width:0.852776;stroke-miterlimit:4;stroke-dasharray:none"
       id="path1401"
       class="seg10 com1" />
    <path
       d="m 99.679173,29.91801 -2.76987,2.10828 -1.81071,20.72005 h 8.076627 l 1.42111,-16.261699 0.15514,-1.775222 z"
       style="fill:#000000;stroke:none;stroke-width:0.852776;stroke-miterlimit:4;stroke-dasharray:none"
       id="path1403"
       class="seg9 com1" />
    <path
       d="m 118.25808,29.91882 -5.90886,4.790599 -0.15515,1.775222 -1.42111,16.261699 -0.024,0.273791 -0.0723,0.827539 -0.0166,0.189508 h -0.0195 c -0.0471,0.205833 -0.14339,0.393081 -0.26794,0.557702 l 5.39477,8.08989 c 1.31981,-0.986301 2.24267,-2.50167 2.39205,-4.21109 l 2.32469,-26.601021 z"
       style="fill:#000000;stroke:none;stroke-width:0.852776;stroke-miterlimit:4;stroke-dasharray:none"
       id="path1405"
       class="seg11 com1" />
    <path
       d="m 94.985783,54.037178 -0.3877,4.436502 c -0.26102,2.98673 1.93333,5.3912 4.92005,5.3912 h 12.779087 c 0.90517,0 1.77419,-0.223649 2.55586,-0.61464 l -5.39065,-8.08363 c -0.08,0.01511 -0.16139,0.0226 -0.24454,0.0226 h -4.9146 c -0.67805,0 -1.18594,-0.500309 -1.22141,-1.152038 h -0.0195 z"
       style="fill:#000000;stroke:none;stroke-width:0.852776;stroke-miterlimit:4;stroke-dasharray:none"
       id="path1407"
       class="seg10 com2" />
    <path
       class="seg9 com0"
       id="path1409"
       style="fill:#000000;stroke:none;stroke-width:0.852776;stroke-miterlimit:4;stroke-dasharray:none"
       d="m 99.882473,1.2681693 c -0.22991,0.54247 -0.38309,1.12211 -0.43601,1.72765 l -2.04276,23.3773907 2.39531,2.26115 5.871647,-4.44351 1.44686,-16.5549707 z" />
    <path
       class="seg11 com0"
       id="path1411"
       style="fill:#000000;stroke:none;stroke-width:0.852776;stroke-miterlimit:4;stroke-dasharray:none"
       d="m 120.55102,-1.7737307 -5.78507,8.4635 h 0.032 l -0.0655,0.74878 -0.0172,0.19733 -1.44685,16.5549707 5.09557,4.444288 2.58639,-2.095788 2.05759,-23.5435407 c 0.18136,-2.07527996 -0.82525,-3.86776986 -2.45693,-4.76954 z" />
    <path
       d="m 105.30866,-2.3955307 c -2.0122,0 -3.85291,1.09352 -4.92136,2.71899014 l 7.22856,6.36614986 h 5.85918 l 6.06872,-8.87765 c -0.45738,-0.13237 -0.94355,-0.20749 -1.45601,-0.20749 z"
       style="fill:#000000;stroke:none;stroke-width:0.852776;stroke-miterlimit:4;stroke-dasharray:none"
       id="path1413"
       class="seg10 com0" />
    <path
       d="m 126.89518,56.25264 v -5.28956 h 3.66854 v 5.28956 z m -4.73358,-5.28956 h 3.52388 v 5.28956 h -3.52388 z m 9.63811,-1.78258 h -10.86096 v 16.50809 h 1.22285 v -7.65338 h 8.40212 v 5.386419 c 0,0.348771 -0.0789,0.46501 -0.32873,0.46501 -0.24982,0.01929 -1.09135,0.0388 -1.93289,-0.01929 0.19725,0.4844 0.39448,1.298189 0.44708,1.80195 1.17025,0 1.93287,-0.0388 2.40624,-0.329382 0.48651,-0.31001 0.64429,-0.85253 0.64429,-1.898809 z"
       style="font-style:normal;font-variant:normal;font-weight:500;font-stretch:normal;font-size:12.7871px;line-height:1.25;font-family:'Noto Sans CJK JP';-inkscape-font-specification:'Noto Sans CJK JP, Medium';font-variant-ligatures:normal;font-variant-caps:normal;font-variant-numeric:normal;font-variant-east-asian:normal;fill:#000000;fill-opacity:1;stroke:none;stroke-width:0.399034"
       id="path1417"
       class="seg12 com2" />
    <path
       id="path1419"
       class="seg31 com2"
       style="fill:#000000;stroke:none;stroke-width:0.620728;stroke-miterlimit:4;stroke-dasharray:none"
       d="m 145.11224,18.665699 a 1.0341357,1.0341357 0 0 1 -1.03414,1.03414 1.0341357,1.0341357 0 0 1 -1.03412,-1.03414 1.0341357,1.0341357 0 0 1 1.03412,-1.03414 1.0341357,1.0341357 0 0 1 1.03414,1.03414 z" />
    <path
       id="path1421"
       class="seg31 com1"
       style="fill:#000000;stroke:none;stroke-width:0.263145;stroke-miterlimit:4;stroke-dasharray:none"
       d="m 139.60769,6.2065793 -1.55739,1.181 1.34335,1.26815 h 2.34447 l 1.565,-1.26815 -1.35097,-1.181 z" />
    <path
       id="path1423"
       class="seg31 com1"
       style="fill:#000000;stroke:none;stroke-width:0.263145;stroke-miterlimit:4;stroke-dasharray:none"
       d="m 137.79368,7.5755493 -0.8547,0.65056 -0.55875,6.3936297 h 2.49223 l 0.43852,-5.0179197 0.0478,-0.54778 z" />
    <path
       id="path1425"
       class="seg31 com1"
       style="fill:#000000;stroke:none;stroke-width:0.263145;stroke-miterlimit:4;stroke-dasharray:none"
       d="m 143.52663,7.5757893 -1.82333,1.47825 -0.0478,0.54778 -0.43852,5.0179197 -0.008,0.0845 -0.0223,0.25536 -0.005,0.0585 h -0.006 c -0.0145,0.0635 -0.0442,0.12133 -0.0827,0.17208 l 1.66466,2.496321 c 0.40727,-0.30434 0.69205,-0.771941 0.73815,-1.299421 l 0.71732,-8.2083497 z" />
    <path
       id="path1427"
       class="seg31 com2"
       style="fill:#000000;stroke:none;stroke-width:0.263145;stroke-miterlimit:4;stroke-dasharray:none"
       d="m 136.34542,15.018059 -0.11966,1.36898 c -0.0805,0.921631 0.59657,1.66357 1.51819,1.66357 h 3.94328 c 0.27931,0 0.54747,-0.069 0.78868,-0.189659 l -1.66341,-2.494381 c -0.0246,0.005 -0.0498,0.006 -0.0754,0.006 h -1.51653 c -0.20921,0 -0.36594,-0.15438 -0.37688,-0.35549 h -0.006 z" />
    <path
       class="seg31 com0"
       id="path1429"
       style="fill:#000000;stroke:none;stroke-width:0.263145;stroke-miterlimit:4;stroke-dasharray:none"
       d="m 137.85625,-1.2648108 c -0.0709,0.1673802 -0.11825,0.34601024 -0.13455,0.53286034 l -0.63028,7.21351976 0.73964,0.69789 1.81134,-1.37126 0.44669,-5.10857996 z" />
    <path
       class="seg31 com0"
       id="path1431"
       style="fill:#000000;stroke:none;stroke-width:0.263145;stroke-miterlimit:4;stroke-dasharray:none"
       d="m 144.23402,-2.2039406 -1.78483,2.61195004 h 0.0103 l -0.0199,0.2306399 -0.005,0.061 -0.44603,5.10857996 1.57208,1.37126 0.79861,-0.64686 0.63426,-7.26454986 c 0.0559,-0.64037004 -0.25471,-1.19374004 -0.75819,-1.47200024 z" />
    <path
       id="path1433"
       class="seg31 com0"
       style="fill:#000000;stroke:none;stroke-width:0.263145;stroke-miterlimit:4;stroke-dasharray:none"
       d="m 139.53078,-2.3955407 c -0.62091,0 -1.1889,0.33744 -1.5186,0.8390101 l 2.23054,1.96442994 h 1.80798 l 1.87265,-2.73941014 c -0.14114,-0.0409 -0.29116,-0.064 -0.44929,-0.064 z" />
    <path
       d="m 148.44547,6.2065793 -1.55738,1.181 1.34335,1.26815 h 2.34446 l 1.565,-1.26815 -1.35097,-1.181 z"
       style="fill:#000000;stroke:none;stroke-width:0.263145;stroke-miterlimit:4;stroke-dasharray:none"
       id="path1437"
       class="seg26 com1" />
    <path
       d="m 146.63145,7.5755493 -0.8547,0.65056 -0.55874,6.3936297 h 2.49223 l 0.43852,-5.0179197 0.0478,-0.54778 z"
       style="fill:#000000;stroke:none;stroke-width:0.263145;stroke-miterlimit:4;stroke-dasharray:none"
       id="path1439"
       class="seg25 com1" />
    <path
       d="m 152.3644,7.5757893 -1.82331,1.47825 -0.0478,0.54778 -0.43852,5.0179197 -0.008,0.0845 -0.0223,0.25536 -0.005,0.0585 h -0.006 c -0.0145,0.0635 -0.0443,0.12133 -0.0827,0.17208 l 1.66467,2.496321 c 0.40726,-0.30434 0.69204,-0.771941 0.73813,-1.299421 l 0.71733,-8.2083497 z"
       style="fill:#000000;stroke:none;stroke-width:0.263145;stroke-miterlimit:4;stroke-dasharray:none"
       id="path1441"
       class="seg27 com1" />
    <path
       d="m 145.1832,15.018059 -0.11966,1.36898 c -0.0805,0.921631 0.59658,1.66357 1.5182,1.66357 h 3.94328 c 0.27931,0 0.54746,-0.069 0.78866,-0.189659 l -1.66339,-2.494381 c -0.0246,0.005 -0.0498,0.006 -0.0754,0.006 h -1.5165 c -0.20924,0 -0.36596,-0.15438 -0.3769,-0.35549 h -0.006 z"
       style="fill:#000000;stroke:none;stroke-width:0.263145;stroke-miterlimit:4;stroke-dasharray:none"
       id="path1443"
       class="seg26 com2" />
    <path
       class="seg25 com0"
       id="path1445"
       style="fill:#000000;stroke:none;stroke-width:0.263145;stroke-miterlimit:4;stroke-dasharray:none"
       d="m 146.69396,-1.2648108 c -0.0709,0.1673802 -0.11825,0.34601024 -0.13453,0.53286034 l -0.6303,7.21417976 0.73964,0.69723 1.81134,-1.37126 0.4467,-5.10857996 z" />
    <path
       class="seg27 com0"
       id="path1447"
       style="fill:#000000;stroke:none;stroke-width:0.263145;stroke-miterlimit:4;stroke-dasharray:none"
       d="m 153.07173,-2.2039406 -1.78481,2.61195004 h 0.0103 l -0.0199,0.2306399 -0.005,0.061 -0.44604,5.10857996 1.57207,1.37126 0.79863,-0.64686 0.63427,-7.26454986 c 0.0559,-0.64037004 -0.25471,-1.19374004 -0.7582,-1.47200024 z" />
    <path
       d="m 148.36856,-2.3955407 c -0.62091,0 -1.1889,0.33744 -1.51859,0.8390101 l 2.23053,1.96442994 h 1.80799 l 1.87264,-2.73941014 c -0.14114,-0.0409 -0.29116,-0.064 -0.44928,-0.064 z"
       style="fill:#000000;stroke:none;stroke-width:0.263145;stroke-miterlimit:4;stroke-dasharray:none"
       id="path1449"
       class="seg26 com0" />
    <path
       id="path1453"
       class="seg29 com1"
       style="fill:#000000;stroke:none;stroke-width:0.263145;stroke-miterlimit:4;stroke-dasharray:none"
       d="m 157.28317,6.2065793 -1.55738,1.181 1.34335,1.26815 h 2.34446 l 1.565,-1.26815 -1.35098,-1.181 z" />
    <path
       id="path1455"
       class="seg28 com1"
       style="fill:#000000;stroke:none;stroke-width:0.263145;stroke-miterlimit:4;stroke-dasharray:none"
       d="m 155.46917,7.5755493 -0.85472,0.65056 -0.55873,6.3936297 h 2.49222 l 0.43852,-5.0179197 0.0478,-0.54778 z" />
    <path
       id="path1457"
       class="seg30 com1"
       style="fill:#000000;stroke:none;stroke-width:0.263145;stroke-miterlimit:4;stroke-dasharray:none"
       d="m 161.2021,7.5757893 -1.82331,1.47825 -0.0478,0.54778 -0.43851,5.0179197 -0.008,0.0845 -0.0223,0.25536 -0.005,0.0585 h -0.006 c -0.0145,0.0635 -0.0442,0.12133 -0.0827,0.17208 l 1.66468,2.496321 c 0.40725,-0.30434 0.69202,-0.771941 0.73811,-1.299421 l 0.71733,-8.2083497 z" />
    <path
       id="path1459"
       class="seg29 com2"
       style="fill:#000000;stroke:none;stroke-width:0.263145;stroke-miterlimit:4;stroke-dasharray:none"
       d="m 154.0209,15.018059 -0.11966,1.36898 c -0.0805,0.921631 0.59658,1.66357 1.5182,1.66357 h 3.94328 c 0.27931,0 0.54747,-0.069 0.78866,-0.189659 l -1.66339,-2.494381 c -0.0246,0.005 -0.0498,0.006 -0.0754,0.006 h -1.51651 c -0.20923,0 -0.36595,-0.15438 -0.37689,-0.35549 h -0.006 z" />
    <path
       class="seg28 com0"
       id="path1461"
       style="fill:#000000;stroke:none;stroke-width:0.263145;stroke-miterlimit:4;stroke-dasharray:none"
       d="m 155.53227,-1.2648108 c -0.0709,0.1673802 -0.11889,0.34601024 -0.13521,0.53286034 l -0.6303,7.21417976 0.73965,0.69723 1.81134,-1.37126 0.4467,-5.10857996 z" />
    <path
       class="seg30 com0"
       id="path1463"
       style="fill:#000000;stroke:none;stroke-width:0.263145;stroke-miterlimit:4;stroke-dasharray:none"
       d="m 161.90937,-2.2039406 -1.78482,2.61195004 h 0.0103 l -0.0199,0.2306399 -0.005,0.061 -0.44603,5.10857996 1.57206,1.37126 0.79863,-0.64686 0.63426,-7.26454986 c 0.0559,-0.64037004 -0.25469,-1.19374004 -0.75819,-1.47200024 z" />
    <path
       id="path1465"
       class="seg29 com0"
       style="fill:#000000;stroke:none;stroke-width:0.263145;stroke-miterlimit:4;stroke-dasharray:none"
       d="m 157.20627,-2.3955407 c -0.62091,0 -1.18891,0.33744 -1.5186,0.8390101 l 2.23053,1.96442994 h 1.80799 l 1.87264,-2.73941014 c -0.14114,-0.0409 -0.29116,-0.064 -0.44928,-0.064 z" />
    <path
       d="m 166.12081,6.2065793 -1.55739,1.181 1.34336,1.26815 h 2.34446 l 1.565,-1.26815 -1.35098,-1.181 z"
       style="fill:#000000;stroke:none;stroke-width:0.263145;stroke-miterlimit:4;stroke-dasharray:none"
       id="path1469"
       class="seg28 com2" />
    <path
       d="m 164.3068,7.5755493 -0.85471,0.65056 -0.55873,6.3936297 h 2.49221 l 0.43853,-5.0179197 0.0478,-0.54778 z"
       style="fill:#000000;stroke:none;stroke-width:0.263145;stroke-miterlimit:4;stroke-dasharray:none"
       id="path1471"
       class="seg30 com2" />
    <path
       d="m 170.03974,7.5757893 -1.82331,1.47825 -0.0478,0.54778 -0.43851,5.0179197 -0.008,0.0845 -0.0223,0.25536 -0.005,0.0585 h -0.006 c -0.0145,0.0635 -0.0442,0.12133 -0.0827,0.17208 l 1.66467,2.496321 c 0.40726,-0.30434 0.69203,-0.771941 0.73811,-1.299421 l 0.71734,-8.2083497 z"
       style="fill:#000000;stroke:none;stroke-width:0.263145;stroke-miterlimit:4;stroke-dasharray:none"
       id="path1473"
       class="seg11 com2" />
    <path
       d="m 162.85854,15.018059 -0.11966,1.36898 c -0.0805,0.921631 0.59658,1.66357 1.5182,1.66357 h 3.94328 c 0.27931,0 0.54747,-0.069 0.78866,-0.189659 l -1.6634,-2.494381 c -0.0246,0.005 -0.0498,0.006 -0.0754,0.006 h -1.51651 c -0.20923,0 -0.36595,-0.15438 -0.37689,-0.35549 h -0.006 z"
       style="fill:#000000;stroke:none;stroke-width:0.263145;stroke-miterlimit:4;stroke-dasharray:none"
       id="path1475"
       class="seg9 com2" />
    <path
       class="seg27 com2"
       id="path1477"
       style="fill:#000000;stroke:none;stroke-width:0.263145;stroke-miterlimit:4;stroke-dasharray:none"
       d="m 164.36984,-1.2648108 c -0.0709,0.1673802 -0.11889,0.34601024 -0.1352,0.53286034 l -0.6303,7.21417976 0.73964,0.69723 1.81134,-1.37126 0.4467,-5.10857996 z" />
    <path
       class="seg31 com2"
       id="path1479"
       style="fill:#000000;stroke:none;stroke-width:0.263145;stroke-miterlimit:4;stroke-dasharray:none"
       d="m 170.74761,-2.2039406 -1.78548,2.61195004 h 0.0103 l -0.0205,0.2306399 -0.005,0.061 -0.44604,5.10857996 1.57206,1.37126 0.79864,-0.64686 0.63427,-7.26454986 c 0.0559,-0.64037004 -0.25406,-1.19374004 -0.75755,-1.47200024 z" />
    <path
       d="m 166.04391,-2.3955407 c -0.62091,0 -1.18892,0.33744 -1.5186,0.8390101 l 2.23053,1.96442994 h 1.80799 l 1.87264,-2.73941014 c -0.14115,-0.0409 -0.29116,-0.064 -0.44928,-0.064 z"
       style="fill:#000000;stroke:none;stroke-width:0.263145;stroke-miterlimit:4;stroke-dasharray:none"
       id="path1481"
       class="seg25 com2" />
    <path
       d="m 145.11223,51.421759 a 1.0341357,1.0341357 0 0 1 -1.03414,1.03414 1.0341357,1.0341357 0 0 1 -1.03412,-1.03414 1.0341357,1.0341357 0 0 1 1.03412,-1.03414 1.0341357,1.0341357 0 0 1 1.03414,1.03414 z"
       style="fill:#000000;stroke:none;stroke-width:0.620728;stroke-miterlimit:4;stroke-dasharray:none"
       class="seg14 com2"
       id="path1485" />
    <path
       d="m 139.60769,38.962649 -1.55739,1.180999 1.34335,1.268151 h 2.34447 l 1.565,-1.268151 -1.35097,-1.180999 z"
       style="fill:#000000;stroke:none;stroke-width:0.263145;stroke-miterlimit:4;stroke-dasharray:none"
       class="seg13 com1"
       id="path1487" />
    <path
       d="m 137.79368,40.331619 -0.8547,0.65056 -0.55875,6.39363 h 2.49223 l 0.43852,-5.017918 0.0478,-0.547781 z"
       style="fill:#000000;stroke:none;stroke-width:0.263145;stroke-miterlimit:4;stroke-dasharray:none"
       class="seg12 com1"
       id="path1489" />
    <path
       d="m 143.52663,40.33186 -1.82333,1.47825 -0.0478,0.547781 -0.43852,5.017918 -0.008,0.0845 -0.0223,0.25536 -0.005,0.0585 h -0.006 c -0.0145,0.0635 -0.0442,0.12133 -0.0827,0.172079 l 1.66466,2.49632 c 0.40727,-0.304339 0.69205,-0.77194 0.73815,-1.299421 l 0.71732,-8.208349 z"
       style="fill:#000000;stroke:none;stroke-width:0.263145;stroke-miterlimit:4;stroke-dasharray:none"
       class="seg14 com1"
       id="path1491" />
    <path
       d="m 136.34542,47.774128 -0.11966,1.368981 c -0.0805,0.92162 0.59657,1.66357 1.51819,1.66357 h 3.94328 c 0.27931,0 0.54747,-0.069 0.78868,-0.189658 L 140.8125,48.12263 c -0.0246,0.005 -0.0498,0.006 -0.0754,0.006 h -1.51653 c -0.20921,0 -0.36594,-0.154372 -0.37688,-0.355492 h -0.006 z"
       style="fill:#000000;stroke:none;stroke-width:0.263145;stroke-miterlimit:4;stroke-dasharray:none"
       class="seg13 com2"
       id="path1493" />
    <path
       d="m 137.85625,31.49126 c -0.0709,0.167381 -0.11825,0.346009 -0.13455,0.53286 l -0.63028,7.213521 0.73964,0.697889 1.81134,-1.371262 0.44669,-5.108577 z"
       style="fill:#000000;stroke:none;stroke-width:0.263145;stroke-miterlimit:4;stroke-dasharray:none"
       id="path1495"
       class="seg12 com0" />
    <path
       d="m 144.23402,30.552119 -1.78483,2.611961 h 0.0103 l -0.0199,0.23064 -0.005,0.061 -0.44603,5.10858 1.57208,1.371259 0.79861,-0.646859 0.63426,-7.264551 c 0.0559,-0.640371 -0.25471,-1.193739 -0.75819,-1.471999 z"
       style="fill:#000000;stroke:none;stroke-width:0.263145;stroke-miterlimit:4;stroke-dasharray:none"
       id="path1497"
       class="seg14 com0" />
    <path
       d="m 139.53078,30.360529 c -0.62091,0 -1.1889,0.337441 -1.5186,0.839001 l 2.23054,1.964439 h 1.80798 l 1.87265,-2.739409 c -0.14114,-0.0409 -0.29116,-0.064 -0.44929,-0.064 z"
       style="fill:#000000;stroke:none;stroke-width:0.263145;stroke-miterlimit:4;stroke-dasharray:none"
       class="seg13 com0"
       id="path1499" />
    <path
       class="seg16 com1"
       id="path1503"
       style="fill:#000000;stroke:none;stroke-width:0.263145;stroke-miterlimit:4;stroke-dasharray:none"
       d="m 148.44547,38.962649 -1.55738,1.180999 1.34335,1.268151 h 2.34446 l 1.565,-1.268151 -1.35097,-1.180999 z" />
    <path
       class="seg15 com1"
       id="path1505"
       style="fill:#000000;stroke:none;stroke-width:0.263145;stroke-miterlimit:4;stroke-dasharray:none"
       d="m 146.63145,40.331619 -0.8547,0.65056 -0.55874,6.39363 h 2.49223 l 0.43852,-5.017918 0.0478,-0.547781 z" />
    <path
       class="seg17 com1"
       id="path1507"
       style="fill:#000000;stroke:none;stroke-width:0.263145;stroke-miterlimit:4;stroke-dasharray:none"
       d="m 152.3644,40.33186 -1.82331,1.47825 -0.0478,0.547781 -0.43852,5.017918 -0.008,0.0845 -0.0223,0.25536 -0.005,0.0585 h -0.006 c -0.0145,0.0635 -0.0443,0.12133 -0.0827,0.172079 l 1.66467,2.49632 c 0.40726,-0.304339 0.69204,-0.77194 0.73813,-1.299421 l 0.71733,-8.208349 z" />
    <path
       class="seg16 com2"
       id="path1509"
       style="fill:#000000;stroke:none;stroke-width:0.263145;stroke-miterlimit:4;stroke-dasharray:none"
       d="m 145.1832,47.774128 -0.11966,1.368981 c -0.0805,0.92162 0.59658,1.66357 1.5182,1.66357 h 3.94328 c 0.27931,0 0.54746,-0.069 0.78866,-0.189658 l -1.66339,-2.494391 c -0.0246,0.005 -0.0498,0.006 -0.0754,0.006 h -1.5165 c -0.20924,0 -0.36596,-0.154372 -0.3769,-0.355492 h -0.006 z" />
    <path
       d="m 146.69396,31.49126 c -0.0709,0.167381 -0.11825,0.346009 -0.13453,0.53286 l -0.6303,7.21418 0.73964,0.69723 1.81134,-1.371262 0.4467,-5.108577 z"
       style="fill:#000000;stroke:none;stroke-width:0.263145;stroke-miterlimit:4;stroke-dasharray:none"
       id="path1511"
       class="seg15 com0" />
    <path
       d="m 153.07173,30.552119 -1.78481,2.611961 h 0.0103 l -0.0199,0.23064 -0.005,0.061 -0.44604,5.10858 1.57207,1.371259 0.79863,-0.646859 0.63427,-7.264551 c 0.0559,-0.640371 -0.25471,-1.193739 -0.7582,-1.471999 z"
       style="fill:#000000;stroke:none;stroke-width:0.263145;stroke-miterlimit:4;stroke-dasharray:none"
       id="path1513"
       class="seg17 com0" />
    <path
       class="seg16 com0"
       id="path1515"
       style="fill:#000000;stroke:none;stroke-width:0.263145;stroke-miterlimit:4;stroke-dasharray:none"
       d="m 148.36856,30.360529 c -0.62091,0 -1.1889,0.337441 -1.51859,0.839001 l 2.23053,1.964439 h 1.80799 l 1.87264,-2.739409 c -0.14114,-0.0409 -0.29116,-0.064 -0.44928,-0.064 z" />
    <path
       d="m 157.28317,38.962649 -1.55738,1.180999 1.34335,1.268151 h 2.34446 l 1.565,-1.268151 -1.35098,-1.180999 z"
       style="fill:#000000;stroke:none;stroke-width:0.263145;stroke-miterlimit:4;stroke-dasharray:none"
       class="seg19 com1"
       id="path1519" />
    <path
       d="m 155.46917,40.331619 -0.85472,0.65056 -0.55873,6.39363 h 2.49222 l 0.43852,-5.017918 0.0478,-0.547781 z"
       style="fill:#000000;stroke:none;stroke-width:0.263145;stroke-miterlimit:4;stroke-dasharray:none"
       class="seg18 com1"
       id="path1521" />
    <path
       d="m 161.2021,40.33186 -1.82331,1.47825 -0.0478,0.547781 -0.43851,5.017918 -0.008,0.0845 -0.0223,0.25536 -0.005,0.0585 h -0.006 c -0.0145,0.0635 -0.0442,0.12133 -0.0827,0.172079 l 1.66468,2.49632 c 0.40725,-0.304339 0.69202,-0.77194 0.73811,-1.299421 l 0.71733,-8.208349 z"
       style="fill:#000000;stroke:none;stroke-width:0.263145;stroke-miterlimit:4;stroke-dasharray:none"
       class="seg20 com1"
       id="path1523" />
    <path
       d="m 154.0209,47.774128 -0.11966,1.368981 c -0.0805,0.92162 0.59658,1.66357 1.5182,1.66357 h 3.94328 c 0.27931,0 0.54747,-0.069 0.78866,-0.189658 l -1.66339,-2.494391 c -0.0246,0.005 -0.0498,0.006 -0.0754,0.006 h -1.51651 c -0.20923,0 -0.36595,-0.154372 -0.37689,-0.355492 h -0.006 z"
       style="fill:#000000;stroke:none;stroke-width:0.263145;stroke-miterlimit:4;stroke-dasharray:none"
       class="seg19 com2"
       id="path1525" />
    <path
       d="m 155.53227,31.49126 c -0.0709,0.167381 -0.11889,0.346009 -0.13521,0.53286 l -0.6303,7.21418 0.73965,0.69723 1.81134,-1.371262 0.4467,-5.108577 z"
       style="fill:#000000;stroke:none;stroke-width:0.263145;stroke-miterlimit:4;stroke-dasharray:none"
       id="path1527"
       class="seg18 com0" />
    <path
       d="m 161.90937,30.552119 -1.78482,2.611961 h 0.0103 l -0.0199,0.23064 -0.005,0.061 -0.44603,5.10858 1.57206,1.371259 0.79863,-0.646859 0.63426,-7.264551 c 0.0559,-0.640371 -0.25469,-1.193739 -0.75819,-1.471999 z"
       style="fill:#000000;stroke:none;stroke-width:0.263145;stroke-miterlimit:4;stroke-dasharray:none"
       id="path1529"
       class="seg20 com0" />
    <path
       d="m 157.20627,30.360529 c -0.62091,0 -1.18891,0.337441 -1.5186,0.839001 l 2.23053,1.964439 h 1.80799 l 1.87264,-2.739409 c -0.14114,-0.0409 -0.29116,-0.064 -0.44928,-0.064 z"
       style="fill:#000000;stroke:none;stroke-width:0.263145;stroke-miterlimit:4;stroke-dasharray:none"
       class="seg19 com0"
       id="path1531" />
    <path
       class="seg22 com1"
       id="path1535"
       style="fill:#000000;stroke:none;stroke-width:0.263145;stroke-miterlimit:4;stroke-dasharray:none"
       d="m 166.12081,38.962649 -1.55739,1.180999 1.34336,1.268151 h 2.34446 l 1.565,-1.268151 -1.35098,-1.180999 z" />
    <path
       class="seg21 com1"
       id="path1537"
       style="fill:#000000;stroke:none;stroke-width:0.263145;stroke-miterlimit:4;stroke-dasharray:none"
       d="m 164.3068,40.331619 -0.85471,0.65056 -0.55873,6.39363 h 2.49221 l 0.43853,-5.017918 0.0478,-0.547781 z" />
    <path
       class="seg23 com1"
       id="path1539"
       style="fill:#000000;stroke:none;stroke-width:0.263145;stroke-miterlimit:4;stroke-dasharray:none"
       d="m 170.03974,40.33186 -1.82331,1.47825 -0.0478,0.547781 -0.43851,5.017918 -0.008,0.0845 -0.0223,0.25536 -0.005,0.0585 h -0.006 c -0.0145,0.0635 -0.0442,0.12133 -0.0827,0.172079 l 1.66467,2.49632 c 0.40726,-0.304339 0.69203,-0.77194 0.73811,-1.299421 l 0.71734,-8.208349 z" />
    <path
       class="seg22 com2"
       id="path1541"
       style="fill:#000000;stroke:none;stroke-width:0.263145;stroke-miterlimit:4;stroke-dasharray:none"
       d="m 162.85854,47.774128 -0.11966,1.368981 c -0.0805,0.92162 0.59658,1.66357 1.5182,1.66357 h 3.94328 c 0.27931,0 0.54747,-0.069 0.78866,-0.189658 l -1.6634,-2.494391 c -0.0246,0.005 -0.0498,0.006 -0.0754,0.006 h -1.51651 c -0.20923,0 -0.36595,-0.154372 -0.37689,-0.355492 h -0.006 z" />
    <path
       d="m 164.36984,31.49126 c -0.0709,0.167381 -0.11889,0.346009 -0.1352,0.53286 l -0.6303,7.21418 0.73964,0.69723 1.81134,-1.371262 0.4467,-5.108577 z"
       style="fill:#000000;stroke:none;stroke-width:0.263145;stroke-miterlimit:4;stroke-dasharray:none"
       id="path1543"
       class="seg21 com0" />
    <path
       d="m 170.74761,30.552119 -1.78548,2.611961 h 0.0103 l -0.0205,0.23064 -0.005,0.061 -0.44604,5.10858 1.57206,1.371259 0.79864,-0.646859 0.63427,-7.264551 c 0.0559,-0.640371 -0.25406,-1.193739 -0.75755,-1.471999 z"
       style="fill:#000000;stroke:none;stroke-width:0.263145;stroke-miterlimit:4;stroke-dasharray:none"
       id="path1545"
       class="seg23 com0" />
    <path
       class="seg22 com0"
       id="path1547"
       style="fill:#000000;stroke:none;stroke-width:0.263145;stroke-miterlimit:4;stroke-dasharray:none"
       d="m 166.04391,30.360529 c -0.62091,0 -1.18892,0.337441 -1.5186,0.839001 l 2.23053,1.964439 h 1.80799 l 1.87264,-2.739409 c -0.14115,-0.0409 -0.29116,-0.064 -0.44928,-0.064 z" />
    <path
       id="path1551"
       class="seg17 com2"
       style="fill:#000000;stroke:none;stroke-width:0.620728;stroke-miterlimit:4;stroke-dasharray:none"
       d="m 154.06149,51.421759 a 1.0341357,1.0341357 0 0 1 -1.03414,1.03414 1.0341357,1.0341357 0 0 1 -1.03412,-1.03414 1.0341357,1.0341357 0 0 1 1.03412,-1.03414 1.0341357,1.0341357 0 0 1 1.03414,1.03414 z" />
    <path
       d="m 162.91479,51.421759 a 1.0341357,1.0341357 0 0 1 -1.03414,1.03414 1.0341357,1.0341357 0 0 1 -1.03412,-1.03414 1.0341357,1.0341357 0 0 1 1.03412,-1.03414 1.0341357,1.0341357 0 0 1 1.03414,1.03414 z"
       style="fill:#000000;stroke:none;stroke-width:0.620728;stroke-miterlimit:4;stroke-dasharray:none"
       class="seg20 com2"
       id="path1553" />
    <path
       d="m 167.7992,59.28354 v -3.59052 h 2.77739 v 3.59052 z m -3.58374,-3.59052 h 2.66789 v 3.59052 h -2.66789 z m 7.29688,-1.20999 h -8.22268 v 11.20556 h 0.9258 v -5.19506 h 6.36113 v 3.656259 c 0,0.236741 -0.0598,0.315661 -0.24887,0.315661 -0.18914,0.01381 -0.82626,0.0263 -1.46336,-0.01381 0.14933,0.328811 0.29865,0.881189 0.33846,1.223139 0.88597,0 1.46336,-0.0263 1.82173,-0.223578 0.36832,-0.210431 0.48779,-0.578691 0.48779,-1.28891 z"
       style="font-style:normal;font-variant:normal;font-weight:500;font-stretch:normal;font-size:8.63437px;line-height:1.25;font-family:'Noto Sans CJK JP';-inkscape-font-specification:'Noto Sans CJK JP, Medium';font-variant-ligatures:normal;font-variant-caps:normal;font-variant-numeric:normal;font-variant-east-asian:normal;fill:#000000;fill-opacity:1;stroke:none;stroke-width:0.286057"
       id="path1555"
       class="seg21 com2" />
    <path
       d="m -47.786511,-2.3955307 c -0.49275,0 -0.88937,0.5192901 -0.88937,1.1644202 V 21.431759 c 0,0.645131 0.39662,1.16441 0.88937,1.16441 H 1.0613786 c 0.492742,0 0.889371,-0.519279 0.889371,-1.16441 V -1.2311105 c 0,-0.6451301 -0.396629,-1.1644202 -0.889371,-1.1644202 z m 27.138021,3.605 1.041739,0.67772 c -0.71755,1.70457 -1.851819,3.52541 -2.89346,4.66825 -0.115729,-0.40676 -0.381849,-1.1232 -0.555458,-1.49124 0.90274,-0.9685 1.921079,-2.53753 2.407179,-3.85473 z m 1.886289,0.52279 h 5.57889 v 6.48916 h -5.57889 z m -24.24672,0.1358 h 1.25033 c -0.0231,0.36804 -0.0582,1.00725 -0.0698,1.47214 -0.0116,0.46486 -0.0233,1.08494 -0.0465,1.76289 0.81016,-0.15496 1.631981,-0.42651 2.256971,-0.73643 l 0.0232,1.89801 c -0.65971,0.2518 -1.5043,0.48454 -2.30288,0.63951 -0.0116,0.7748 -0.0232,1.53059 -0.0232,2.20856 v 0.65861 c 0.833291,-0.40677 1.6895,-0.60061 2.38392,-0.60061 1.70133,0 2.985861,1.5305297 2.985861,3.9905497 0,2.28569 -0.78658,3.87358 -2.476331,4.55154 -0.52081,0.193701 -1.030339,0.252341 -1.446989,0.27165 l -0.416601,-1.93762 c 0.462951,0 0.949071,5.29e-4 1.377301,-0.13512 0.96061,-0.29055 1.805229,-1.14314 1.805229,-2.77025 0,-1.47213 -0.79818,-2.28567 -1.839819,-2.28567 -0.810141,0 -1.586021,0.23274 -2.34988,0.63951 0.0116,1.58836 0.0465,3.19619 0.0465,3.95164 0,2.03386 -0.45154,2.61462 -1.122801,2.61462 -0.99533,0 -2.5228,-1.51059 -2.5228,-3.37015 0,-1.6271 1.16869,-3.31251 2.5228,-4.3004 V 9.1898493 c 0,-0.67797 2.91e-4,-1.39424 0.0119,-2.11094 -0.27778,0.0387 -0.53224,0.058 -0.75215,0.058 -0.50925,0 -1.05345,-0.0194 -1.50482,-0.0969 l -0.0346,-1.8598 c 0.64812,0.13566 1.0995,0.15492 1.51616,0.15492 0.24303,0 0.50894,-0.0196 0.78671,-0.0389 0,-0.87166 0.0119,-1.56843 0.0119,-1.9171 0,-0.40677 -0.0351,-1.16238 -0.0698,-1.51105 z m 33.6911196,0.0969 h 6.469332 v 6.60517 h -6.469332 z m -24.3974686,0.0389 h 8.969458 v 4.45462 h -8.969458 z m 15.994821,1.04556 v 1.29811 h 3.448909 v -1.29811 z m -14.987651,0.32966 v 1.70417 h 1.64315 v -1.70417 z m 2.56926,0 v 1.70417 h 1.689619 v -1.70417 z m 2.60385,0 v 1.70417 h 1.747961 v -1.70417 z m 19.2470396,0.30986 v 3.1572 h 4.33992 v -3.1572 z m -30.0217396,0.29003 c 0.844879,0.7167 2.12945,1.99571 2.70814,2.75115 l -0.56736,1.54925 c -0.55552,-0.85228 -1.93273,-2.18904 -2.650301,-2.82826 z m 17.915679,1.43394 0.949351,0.6388 c -0.2662,0.79419 -0.613801,1.60822 -0.972582,2.4024 V 18.91399 h -1.04122 v -8.464961 c -0.393509,0.71669 -0.822229,1.33653 -1.215728,1.8789 -0.0926,-0.40677 -0.36997,-1.37539 -0.543589,-1.82089 1.030068,-1.2203297 2.140918,-3.1571097 2.823768,-5.0941297 z m 2.673562,0.17403 v 1.29811 h 3.448909 v -1.29812 z m -15.335081,1.83999 h 7.66187 v 8.3489597 h -7.66187 z m 1.07633,1.2012 v 1.2203 h 5.4746 v -1.2203 z m 12.56914,0.69752 h 6.689259 v 1.4912397 h -1.43511 v 1.41412 h 1.655021 v 1.54996 h -1.655021 v 3.27323 c 0,0.89104 -0.103828,1.336331 -0.485759,1.588151 -0.381921,0.271259 -0.93757,0.29075 -1.75931,0.29075 -0.058,-0.484251 -0.20855,-1.162171 -0.347419,-1.62706 0.578659,0.0386 1.1342,0.0384 1.296238,0.0191 0.173612,-0.01939 0.219922,-0.0774 0.219922,-0.309851 v -3.234333 h -4.455562 v -1.54995 h 4.455562 v -1.41413 h -4.177821 z m 8.460449,1.1233797 h 4.1891606 v 8.34824 h -1.064429 v -0.871541 h -2.106742 V 18.9331 h -1.0179896 z m 5.3238606,0 h 4.39774 v 8.387149 h -1.076351 v -0.91045 h -2.29152 V 18.9331 h -1.029869 z M -31.9792,10.991619 v 1.20049 h 5.4746 v -1.20049 z m 22.0475786,1.18139 v 4.02874 h 2.106742 v -4.02874 z m 5.33574,0 v 4.02874 h 2.29152 v -4.02874 z m -38.3552196,0.0191 c -0.83331,0.67797 -1.41188,1.646671 -1.41188,2.42149 0,0.755431 0.67148,1.414131 1.06499,1.414131 0.24304,0 0.38201,-0.252131 0.38201,-0.89135 0,-0.60047 -0.0235,-1.704561 -0.0352,-2.944271 z m 10.971901,1.14318 v 1.25921 h 5.4746 v -1.25921 z m 13.946428,0.56169 c 0.509241,0.7748 1.133883,1.878551 1.423231,2.614621 l -0.809969,0.968459 C -17.685699,16.744 -18.287571,15.58235 -18.796801,14.74943 Z m -13.043528,1.91781 0.983939,0.73572 c -0.949039,0.98788 -2.43073,1.917599 -3.599679,2.440591 -0.185171,-0.34865 -0.566901,-1.026391 -0.809951,-1.33631 1.21523,-0.387411 2.615531,-1.10391 3.425691,-1.840001 z m 3.483499,0.0191 c 1.28467,0.65858 2.731642,1.54953 3.59966,2.188758 l -1.14604,0.92955 c -0.740698,-0.619839 -2.025059,-1.490999 -3.298159,-2.168948 z"
       style="fill:#ff2a2a;fill-opacity:1;stroke:none;stroke-width:0.672319;stroke-miterlimit:4;stroke-dasharray:none"
       id="path1557"
       class="seg24 com2" />
    <path
       d="m -37.98089,31.848529 v 1.348129 h -2.28181 v -1.348129 z m 3.27333,1.348129 h -2.36332 v -1.348129 h 2.36332 z m -2.36332,2.23665 v -1.394089 h 2.36332 v 1.394089 z m -3.191831,0 v -1.394089 h 2.281821 v 1.394089 z m 0,0.873202 h 2.281821 v 2.48177 h 0.910019 v -2.48177 h 2.36332 v 1.394079 c 0,0.19916 -0.0543,0.260429 -0.230899,0.260429 -0.162981,0 -0.747031,0.01529 -1.38539,-0.01529 0.12222,0.26044 0.24447,0.658749 0.28522,0.93449 0.910019,0 1.480459,-0.01529 1.833609,-0.1685 0.353141,-0.168521 0.461801,-0.44427 0.461801,-0.99578 v -6.740591 h -1.71136 c -0.298821,-0.18383 -0.65196,-0.398299 -1.04584,-0.61277 1.00509,-0.56683 2.02375,-1.332799 2.743619,-2.098778 l -0.624789,-0.536181 -0.19015,0.0613 h -6.628151 v 0.903861 h 5.6638 c -0.543279,0.444259 -1.208819,0.888519 -1.860759,1.210231 -0.63837,-0.306382 -1.3039,-0.61278 -1.887941,-0.842561 l -0.63837,0.643409 c 0.814941,0.337031 1.77929,0.827251 2.580631,1.271521 h -3.870941 v 7.874238 h 0.950761 z m -2.05092,-6.34228 c -0.43464,-0.75066 -1.43973,-1.77706 -2.29541,-2.46644 l -0.70628,0.704699 c 0.85568,0.720021 1.83361,1.792391 2.25465,2.54303 z m -0.298819,3.18646 h -2.933771 v 1.072369 h 1.95586 v 3.937111 c -0.69271,0.62811 -1.4669,1.271529 -2.11883,1.731119 l 0.48895,1.102989 c 0.77419,-0.643408 1.49406,-1.302149 2.18675,-1.97621 0.82853,1.210252 2.05092,1.74643 3.8302,1.823022 1.49405,0.0765 4.37348,0.0459 5.88112,-0.0306 0.0543,-0.337032 0.20375,-0.857901 0.312401,-1.11833 -1.616301,0.122589 -4.713041,0.168518 -6.19351,0.092 -1.589131,-0.0612 -2.757201,-0.56683 -3.40916,-1.715789 z"
       style="font-style:normal;font-variant:normal;font-weight:normal;font-stretch:normal;font-size:12.2087px;line-height:1.25;font-family:'Noto Sans CJK JP';-inkscape-font-specification:'Noto Sans CJK JP, Normal';font-variant-ligatures:normal;font-variant-caps:normal;font-variant-numeric:normal;font-variant-east-asian:normal;fill:#ff2a2a;fill-opacity:1;stroke:none;stroke-width:0.360619"
       id="path1559"
       class="seg0 com2" />
    <path
       d="m -27.0354,32.560888 h 5.120519 V 34.0622 H -27.0354 Z m 7.375179,3.615402 h -4.169759 v -1.256192 h 2.92018 V 31.70299 h -7.08994 v 3.217108 h 3.15109 v 1.256192 h -4.35992 v 4.381389 h 1.0051 v -3.339658 h 3.35482 v 4.029038 h 1.01867 v -4.029038 h 3.151089 v 2.144739 c 0,0.18384 -0.068,0.22979 -0.271661,0.24511 -0.203739,0.01529 -0.923578,0.01529 -1.738518,-0.01529 0.135829,0.3064 0.298799,0.720021 0.353139,1.04172 1.045832,0 1.724951,0 2.146001,-0.183819 0.421029,-0.168522 0.529709,-0.474912 0.529709,-1.07237 z m -1.31749,-8.80872 c -0.258059,0.5515 -0.747019,1.36343 -1.127329,1.86898 l 0.81493,0.382989 c 0.393899,-0.459578 0.910019,-1.16428 1.358239,-1.838349 z m 2.14599,2.251969 H -23.91149 V 27.24501 h -1.01867 v 2.374529 h -2.83869 l 0.8421,-0.42895 c -0.23091,-0.50554 -0.70628,-1.2562 -1.1545,-1.79238 l -0.89642,0.41362 c 0.393879,0.551511 0.85568,1.30216 1.059409,1.80771 h -2.17317 v 3.278381 h 0.964351 v -2.282611 h 9.30386 v 2.282611 h 0.991499 z"
       style="font-style:normal;font-variant:normal;font-weight:normal;font-stretch:normal;font-size:12.2087px;line-height:1.25;font-family:'Noto Sans CJK JP';-inkscape-font-specification:'Noto Sans CJK JP, Normal';font-variant-ligatures:normal;font-variant-caps:normal;font-variant-numeric:normal;font-variant-east-asian:normal;fill:#ff2a2a;fill-opacity:1;stroke:none;stroke-width:0.360619"
       id="path1561"
       class="seg0 com2" />
    <path
       d="m -5.7260304,33.400718 v -3.783139 h 3.44542 v 3.783139 z m -4.4457406,-3.783139 h 3.3095906 v 3.783139 h -3.3095906 z m 9.0520016,-1.274908 H -11.320239 V 40.1494 h 1.148468 v -5.473782 h 7.8911606 v 3.852442 c 0,0.249439 -0.0741,0.332589 -0.308721,0.332589 -0.23464,0.01381 -1.02499,0.0276 -1.81533,-0.01381 0.18523,0.34644 0.370462,0.92846 0.419862,1.288762 1.099079,0 1.815328,-0.0276 2.25991,-0.23558 0.456919,-0.221721 0.60511,-0.60974 0.60511,-1.358051 z"
       style="font-style:normal;font-variant:normal;font-weight:500;font-stretch:normal;font-size:10.8167px;line-height:1.25;font-family:'Noto Sans CJK JP';-inkscape-font-specification:'Noto Sans CJK JP, Medium';font-variant-ligatures:normal;font-variant-caps:normal;font-variant-numeric:normal;font-variant-east-asian:normal;fill:#ff2a2a;fill-opacity:1;stroke:none;stroke-width:0.327041"
       id="path1563"
       class="seg11 com2" />
    <path
       d="m -34.54497,63.69918 a 1.0117457,1.0117457 0 0 1 -1.01175,1.01175 1.0117457,1.0117457 0 0 1 -1.01175,-1.01175 1.0117457,1.0117457 0 0 1 1.01175,-1.011751 1.0117457,1.0117457 0 0 1 1.01175,1.011751 z"
       style="fill:#ff2a2a;fill-opacity:1;stroke:none;stroke-width:0.60729;stroke-miterlimit:4;stroke-dasharray:none"
       id="path1565"
       class="seg2 com2" />
    <path
       d="m -41.492381,52.195139 -1.85835,1.15544 1.602961,1.240682 h 2.797509 l 1.86743,-1.240682 -1.61204,-1.15544 z"
       style="fill:#ff2a2a;fill-opacity:1;stroke:none;stroke-width:0.284319;stroke-miterlimit:4;stroke-dasharray:none"
       id="path1567"
       class="seg1 com1" />
    <path
       d="m -43.656941,53.53447 -1.01987,0.636468 -0.66671,6.255211 h 2.973841 l 0.523259,-4.90927 0.0571,-0.535919 z"
       style="fill:#ff2a2a;fill-opacity:1;stroke:none;stroke-width:0.284319;stroke-miterlimit:4;stroke-dasharray:none"
       id="path1569"
       class="seg0 com1" />
    <path
       d="m -36.816141,53.534711 -2.17565,1.446249 -0.0572,0.535919 -0.52325,4.90927 -0.009,0.0827 -0.0266,0.24983 -0.007,0.0572 h -0.007 c -0.0173,0.0621 -0.0528,0.118679 -0.0987,0.16837 l 1.98636,2.442261 c 0.48597,-0.297752 0.82576,-0.755222 0.88077,-1.271281 l 0.85595,-8.030631 z"
       style="fill:#ff2a2a;fill-opacity:1;stroke:none;stroke-width:0.284319;stroke-miterlimit:4;stroke-dasharray:none"
       id="path1571"
       class="seg2 com1" />
    <path
       d="m -45.385071,60.815851 -0.14275,1.339339 c -0.0961,0.901661 0.71186,1.627561 1.81159,1.627561 h 4.70528 c 0.3333,0 0.65327,-0.0675 0.94109,-0.185552 l -1.98486,-2.44039 c -0.0295,0.004 -0.0594,0.006 -0.0901,0.006 h -1.809569 c -0.249661,0 -0.436661,-0.15104 -0.44972,-0.34779 h -0.007 z"
       style="fill:#ff2a2a;fill-opacity:1;stroke:none;stroke-width:0.284319;stroke-miterlimit:4;stroke-dasharray:none"
       id="path1573"
       class="seg1 com2" />
    <path
       class="seg0 com0"
       id="path1575"
       style="fill:#ff2a2a;fill-opacity:1;stroke:none;stroke-width:0.284319;stroke-miterlimit:4;stroke-dasharray:none"
       d="m -43.581851,44.88518 c -0.0847,0.16378 -0.14108,0.338759 -0.16055,0.52156 l -0.74993,7.031379 0.89288,0.70041 2.14885,-1.333058 0.532481,-4.997892 z" />
    <path
       class="seg2 com0"
       id="path1577"
       style="fill:#ff2a2a;fill-opacity:1;stroke:none;stroke-width:0.284319;stroke-miterlimit:4;stroke-dasharray:none"
       d="m -35.972081,43.967039 -2.129899,2.555041 h 0.0118 l -0.0237,0.226068 -0.007,0.0594 -0.53248,4.997889 1.86231,1.33195 0.96943,-0.65209 0.75399,-7.07858 c 0.0667,-0.62651 -0.30359,-1.167469 -0.9044,-1.439709 z" />
    <path
       d="m -41.584161,43.779269 c -0.74089,0 -1.41864,0.330131 -1.81204,0.820841 l 2.66156,1.921888 h 2.15737 l 2.234521,-2.680089 c -0.16842,-0.04 -0.34743,-0.0627 -0.536111,-0.0627 z"
       style="fill:#ff2a2a;fill-opacity:1;stroke:none;stroke-width:0.284319;stroke-miterlimit:4;stroke-dasharray:none"
       id="path1579"
       class="seg1 com0" />
    <path
       id="path1583"
       class="seg4 com1"
       style="fill:#ff2a2a;fill-opacity:1;stroke:none;stroke-width:0.284319;stroke-miterlimit:4;stroke-dasharray:none"
       d="m -30.18034,52.195139 -1.85833,1.15544 1.60294,1.240682 h 2.79751 l 1.867428,-1.240682 -1.612038,-1.15544 z" />
    <path
       id="path1585"
       class="seg3 com1"
       style="fill:#ff2a2a;fill-opacity:1;stroke:none;stroke-width:0.284319;stroke-miterlimit:4;stroke-dasharray:none"
       d="m -32.34491,53.53447 -1.01986,0.636468 -0.66672,6.255211 h 2.973839 l 0.523261,-4.90927 0.0572,-0.535919 z" />
    <path
       id="path1587"
       class="seg5 com1"
       style="fill:#ff2a2a;fill-opacity:1;stroke:none;stroke-width:0.284319;stroke-miterlimit:4;stroke-dasharray:none"
       d="m -25.504092,53.534711 -2.175658,1.446249 -0.0572,0.535919 -0.52326,4.90927 -0.009,0.0827 -0.0266,0.24983 -0.007,0.0572 h -0.007 c -0.0173,0.0621 -0.0528,0.118679 -0.0986,0.16837 l 1.98636,2.442261 c 0.48596,-0.297752 0.825749,-0.755222 0.880761,-1.271281 l 0.855948,-8.030631 z" />
    <path
       id="path1589"
       class="seg4 com2"
       style="fill:#ff2a2a;fill-opacity:1;stroke:none;stroke-width:0.284319;stroke-miterlimit:4;stroke-dasharray:none"
       d="m -34.073021,60.815851 -0.142749,1.339339 c -0.0961,0.901661 0.71186,1.627561 1.81158,1.627561 h 4.705299 c 0.333271,0 0.653241,-0.0675 0.94107,-0.185552 l -1.984859,-2.44039 c -0.0295,0.004 -0.0594,0.006 -0.0901,0.006 h -1.80957 c -0.24965,0 -0.43666,-0.15104 -0.44972,-0.34779 h -0.007 z" />
    <path
       class="seg3 com0"
       id="path1591"
       style="fill:#ff2a2a;fill-opacity:1;stroke:none;stroke-width:0.284319;stroke-miterlimit:4;stroke-dasharray:none"
       d="m -32.26971,44.88518 c -0.0847,0.16378 -0.14175,0.338759 -0.161251,0.52156 l -0.749269,7.031929 0.89289,0.69986 2.148869,-1.333058 0.532461,-4.997892 z" />
    <path
       class="seg5 com0"
       id="path1593"
       style="fill:#ff2a2a;fill-opacity:1;stroke:none;stroke-width:0.284319;stroke-miterlimit:4;stroke-dasharray:none"
       d="m -24.659952,43.967039 -2.129898,2.555041 h 0.0118 l -0.0237,0.226068 -0.007,0.0594 -0.53247,4.997889 1.862301,1.33195 0.969428,-0.65264 0.754002,-7.07803 c 0.0667,-0.62651 -0.303612,-1.167469 -0.904391,-1.439709 z" />
    <path
       id="path1595"
       class="seg4 com0"
       style="fill:#ff2a2a;fill-opacity:1;stroke:none;stroke-width:0.284319;stroke-miterlimit:4;stroke-dasharray:none"
       d="m -30.2721,43.779269 c -0.7409,0 -1.418651,0.330131 -1.812061,0.820841 l 2.661571,1.921888 h 2.15737 l 2.23451,-2.680089 c -0.168402,-0.04 -0.347411,-0.0627 -0.53609,-0.0627 z" />
    <path
       d="m -18.868241,52.195139 -1.858338,1.15544 1.602938,1.240682 h 2.797511 l 1.867429,-1.240682 -1.612029,-1.15544 z"
       style="fill:#ff2a2a;fill-opacity:1;stroke:none;stroke-width:0.284319;stroke-miterlimit:4;stroke-dasharray:none"
       id="path1599"
       class="seg7 com1" />
    <path
       d="m -21.032789,53.53447 -1.019871,0.636468 -0.666721,6.255211 h 2.973832 l 0.523248,-4.90927 0.0572,-0.535919 z"
       style="fill:#ff2a2a;fill-opacity:1;stroke:none;stroke-width:0.284319;stroke-miterlimit:4;stroke-dasharray:none"
       id="path1601"
       class="seg6 com1" />
    <path
       d="m -14.192011,53.534711 -2.17565,1.446249 -0.0572,0.535919 -0.523258,4.90927 -0.009,0.0827 -0.0266,0.24983 -0.007,0.0572 h -0.007 c -0.0173,0.0621 -0.0528,0.118679 -0.0987,0.16837 l 1.986359,2.442261 c 0.485969,-0.297752 0.82577,-0.755222 0.880769,-1.271281 l 0.855962,-8.030631 z"
       style="fill:#ff2a2a;fill-opacity:1;stroke:none;stroke-width:0.284319;stroke-miterlimit:4;stroke-dasharray:none"
       id="path1603"
       class="seg8 com1" />
    <path
       d="m -22.76091,60.815851 -0.142761,1.339339 c -0.0961,0.901661 0.711861,1.627561 1.81157,1.627561 h 4.705292 c 0.33328,0 0.653269,-0.0675 0.941078,-0.185552 l -1.984849,-2.44039 c -0.0295,0.004 -0.0594,0.006 -0.0901,0.006 h -1.80957 c -0.24965,0 -0.436669,-0.15104 -0.449728,-0.34779 h -0.007 z"
       style="fill:#ff2a2a;fill-opacity:1;stroke:none;stroke-width:0.284319;stroke-miterlimit:4;stroke-dasharray:none"
       id="path1605"
       class="seg7 com2" />
    <path
       class="seg6 com0"
       id="path1607"
       style="fill:#ff2a2a;fill-opacity:1;stroke:none;stroke-width:0.284319;stroke-miterlimit:4;stroke-dasharray:none"
       d="m -20.95755,44.88518 c -0.0847,0.16378 -0.141761,0.338759 -0.16124,0.52156 l -0.749249,7.031929 0.892868,0.69986 2.148181,-1.333058 0.533149,-4.997892 z" />
    <path
       class="seg8 com0"
       id="path1609"
       style="fill:#ff2a2a;fill-opacity:1;stroke:none;stroke-width:0.284319;stroke-miterlimit:4;stroke-dasharray:none"
       d="m -13.347789,43.967039 -2.129912,2.555041 h 0.0118 l -0.02371,0.226068 -0.007,0.0594 -0.532479,4.997889 1.86231,1.33195 0.96943,-0.65264 0.753999,-7.07803 c 0.0667,-0.62651 -0.303598,-1.167469 -0.90439,-1.439709 z" />
    <path
       d="m -18.96002,43.779269 c -0.740891,0 -1.418651,0.330131 -1.812041,0.820841 l 2.66156,1.921888 h 2.15736 l 2.23453,-2.680089 c -0.16842,-0.04 -0.34744,-0.0627 -0.536109,-0.0627 z"
       style="fill:#ff2a2a;fill-opacity:1;stroke:none;stroke-width:0.284319;stroke-miterlimit:4;stroke-dasharray:none"
       id="path1611"
       class="seg7 com0" />
    <path
       id="path1615"
       class="seg10 com1"
       style="fill:#ff2a2a;fill-opacity:1;stroke:none;stroke-width:0.284319;stroke-miterlimit:4;stroke-dasharray:none"
       d="m -7.5560604,52.195139 -1.858351,1.15544 1.602951,1.240682 h 2.797509 l 1.867442,-1.240682 -1.61204,-1.15544 z" />
    <path
       id="path1617"
       class="seg9 com1"
       style="fill:#ff2a2a;fill-opacity:1;stroke:none;stroke-width:0.284319;stroke-miterlimit:4;stroke-dasharray:none"
       d="m -9.7206294,53.53447 -1.0198706,0.636468 -0.666711,6.255211 h 2.9738396 l 0.523251,-4.90927 0.0572,-0.535919 z" />
    <path
       id="path1619"
       class="seg11 com1"
       style="fill:#ff2a2a;fill-opacity:1;stroke:none;stroke-width:0.284319;stroke-miterlimit:4;stroke-dasharray:none"
       d="m -2.8798304,53.534711 -2.17565,1.446249 -0.0572,0.535919 -0.523258,4.90927 -0.009,0.0827 -0.0266,0.24983 -0.007,0.0572 h -0.007 c -0.0173,0.0621 -0.0528,0.118679 -0.0987,0.16837 l 1.986359,2.442261 c 0.485971,-0.297752 0.82577,-0.755222 0.880772,-1.271281 l 0.855958,-8.030631 z" />
    <path
       id="path1621"
       class="seg10 com2"
       style="fill:#ff2a2a;fill-opacity:1;stroke:none;stroke-width:0.284319;stroke-miterlimit:4;stroke-dasharray:none"
       d="m -11.44875,60.815851 -0.142769,1.339339 c -0.0961,0.901661 0.711869,1.627561 1.8115876,1.627561 h 4.70529 c 0.333282,0 0.653272,-0.0675 0.941091,-0.185552 l -1.984859,-2.44039 c -0.0295,0.004 -0.0594,0.006 -0.0901,0.006 h -1.80957 c -0.24965,0 -0.436668,-0.15104 -0.449728,-0.34779 h -0.007 z" />
    <path
       class="seg9 com0"
       id="path1623"
       style="fill:#ff2a2a;fill-opacity:1;stroke:none;stroke-width:0.284319;stroke-miterlimit:4;stroke-dasharray:none"
       d="m -9.6459804,44.88518 c -0.0847,0.16378 -0.14107,0.338759 -0.160549,0.52156 l -0.7492516,7.031929 0.8928696,0.69986 2.148182,-1.333058 0.533159,-4.997892 z" />
    <path
       class="seg11 com0"
       id="path1625"
       style="fill:#ff2a2a;fill-opacity:1;stroke:none;stroke-width:0.284319;stroke-miterlimit:4;stroke-dasharray:none"
       d="m -2.0355314,43.967039 -2.129899,2.555041 h 0.0118 l -0.02439,0.226068 -0.007,0.0594 -0.53314,4.997889 1.862981,1.33195 0.96942,-0.65264 0.75401,-7.07803 c 0.0667,-0.62651 -0.30362,-1.167469 -0.904401,-1.439709 z" />
    <path
       id="path1627"
       class="seg10 com0"
       style="fill:#ff2a2a;fill-opacity:1;stroke:none;stroke-width:0.284319;stroke-miterlimit:4;stroke-dasharray:none"
       d="m -7.6478414,43.779269 c -0.740889,0 -1.418649,0.330131 -1.81205,0.820841 l 2.661571,1.921888 h 2.15736 l 2.23453,-2.680089 c -0.16842,-0.04 -0.347429,-0.0627 -0.536109,-0.0627 z" />
  </g>
</svg>
